<svg xmlns="http://www.w3.org/2000/svg" viewBox="0 0 250 248" width="250" height="248">
	<style>
		tspan { white-space:pre }
		.shp0 { fill: #40baed } 
		.shp1 { fill: #22356f } 
		.shp2 { fill: #a2c523 } 
	</style>
	<g >
		<path class="shp0" d="M116.12 0.36C114.48 0.53 112.62 0.76 111.99 0.87C111.36 0.97 110.53 1.05 110.14 1.05C109.76 1.05 108.29 1.26 106.89 1.5C105.49 1.75 103.27 2.19 101.97 2.47C100.66 2.76 99.44 3 99.24 3C99.05 3 98.22 3.19 97.4 3.42C96.58 3.65 95.39 3.97 94.76 4.13C94.13 4.3 93.06 4.58 92.39 4.76C91.71 4.95 90.6 5.27 89.93 5.48C89.25 5.69 88.06 6.08 87.29 6.34C86.52 6.61 85.61 6.92 85.27 7.04C84.93 7.16 84.14 7.44 83.51 7.66C82.88 7.88 82.01 8.23 81.58 8.43C81.14 8.64 80.69 8.81 80.56 8.81C80.44 8.81 79.93 9 79.42 9.23C78.91 9.46 77.98 9.86 77.36 10.13C76.73 10.39 75.7 10.84 75.07 11.13C74.44 11.41 73.53 11.84 73.05 12.08C72.57 12.31 72.11 12.5 72.04 12.51C71.97 12.51 71.53 12.74 71.07 13.03C70.61 13.32 70.14 13.55 70.02 13.56C69.89 13.56 69.48 13.76 69.09 14C68.71 14.25 68.31 14.44 68.21 14.44C68.12 14.44 67.68 14.68 67.25 14.97C66.81 15.26 66.34 15.5 66.19 15.5C66.05 15.5 65.89 15.58 65.84 15.68C65.79 15.77 65.3 16.09 64.74 16.39C64.19 16.68 63.3 17.19 62.76 17.52C62.23 17.85 61.56 18.24 61.27 18.39C60.98 18.54 60.57 18.82 60.36 19.02C60.15 19.21 59.88 19.37 59.75 19.37C59.62 19.36 59.39 19.49 59.25 19.65C59.1 19.8 58.56 20.18 58.03 20.49C57.51 20.8 56.91 21.17 56.69 21.31C56.48 21.46 55.64 22.02 54.83 22.57C54.02 23.11 53.24 23.69 53.09 23.85C52.95 24.01 52.73 24.14 52.61 24.14C52.49 24.13 52.37 24.19 52.35 24.27C52.32 24.35 51.75 24.82 51.07 25.32C50.4 25.82 49.7 26.37 49.52 26.54C49.34 26.72 49.05 26.94 48.88 27.04C48.71 27.13 47.94 27.72 47.18 28.33C46.42 28.94 45.74 29.56 45.67 29.69C45.59 29.83 45.42 29.94 45.27 29.94C45.13 29.94 44.89 30.14 44.74 30.38C44.6 30.63 44.38 30.82 44.26 30.82C44.14 30.82 43.86 31.06 43.64 31.35C43.43 31.64 43.19 31.88 43.12 31.87C43.04 31.87 42.11 32.68 41.05 33.67C39.99 34.66 38.17 36.43 37.01 37.6C35.85 38.77 34.27 40.43 33.49 41.29C32.72 42.14 31.89 43.06 31.65 43.33C31.4 43.6 30.84 44.24 30.39 44.76C29.94 45.28 29.16 46.22 28.66 46.85C28.16 47.48 27.68 48.02 27.59 48.04C27.5 48.07 27.42 48.18 27.42 48.31C27.41 48.43 27.18 48.8 26.89 49.14C26.6 49.48 26.26 49.88 26.13 50.02C26.01 50.17 25.52 50.84 25.05 51.52C24.58 52.2 24.07 52.88 23.92 53.04C23.77 53.2 23.25 53.9 22.77 54.6C22.28 55.3 21.78 56.08 21.64 56.34C21.51 56.59 21.34 56.84 21.27 56.89C21.21 56.94 20.88 57.42 20.55 57.96C20.22 58.5 19.86 59.09 19.73 59.28C19.61 59.47 19.26 60.04 18.94 60.55C18.63 61.07 18.2 61.78 17.98 62.14C17.76 62.5 17.49 62.97 17.36 63.19C17.24 63.41 17.08 63.59 17.01 63.59C16.94 63.59 16.88 63.74 16.88 63.94C16.88 64.13 16.8 64.33 16.7 64.38C16.61 64.43 16.34 64.84 16.11 65.3C15.88 65.76 15.41 66.65 15.06 67.28C14.72 67.91 13.91 69.5 13.26 70.81C12.61 72.11 11.89 73.62 11.65 74.15C11.41 74.69 10.99 75.6 10.71 76.18C10.42 76.76 10.19 77.32 10.2 77.41C10.2 77.51 10.01 77.96 9.76 78.42C9.52 78.88 9.32 79.36 9.32 79.48C9.32 79.6 9.11 80.14 8.85 80.67C8.59 81.2 8.32 81.88 8.25 82.17C8.18 82.46 7.96 83.09 7.77 83.58C7.57 84.06 7.18 85.13 6.89 85.95C6.61 86.78 6.18 88.09 5.94 88.86C5.69 89.64 5.25 91.1 4.96 92.12C4.66 93.14 4.22 94.76 3.97 95.73C3.72 96.7 3.29 98.52 3.01 99.78C2.73 101.04 2.29 103.18 2.05 104.54C1.8 105.89 1.4 108.47 1.16 110.26C0.92 112.05 0.57 115.18 0.4 117.22C0.17 119.92 0.09 122.67 0.09 127.43C0.09 132.23 0.17 134.93 0.4 137.65C0.58 139.68 0.92 142.78 1.16 144.52C1.4 146.26 1.8 148.84 2.05 150.24C2.3 151.65 2.73 153.83 3.02 155.09C3.3 156.35 3.73 158.17 3.97 159.14C4.21 160.11 4.65 161.73 4.95 162.75C5.25 163.77 5.69 165.23 5.93 166.01C6.17 166.78 6.6 168.09 6.89 168.91C7.18 169.74 7.57 170.81 7.77 171.29C7.96 171.78 8.18 172.41 8.25 172.7C8.33 172.99 8.59 173.69 8.85 174.24C9.11 174.8 9.32 175.32 9.32 175.39C9.31 175.46 9.51 175.94 9.75 176.44C10 176.95 10.2 177.43 10.19 177.5C10.19 177.57 10.55 178.43 11 179.39C11.44 180.36 12.6 182.74 13.57 184.68C14.54 186.62 15.58 188.63 15.88 189.16C16.21 189.72 16.8 190.4 17.32 190.78C17.99 191.29 18.42 191.47 19.16 191.55C19.69 191.61 20.45 191.61 20.83 191.54C21.22 191.47 21.77 191.3 22.06 191.15C22.35 191 22.65 190.78 22.72 190.64C22.8 190.51 22.95 190.41 23.07 190.41C23.2 190.41 23.59 189.86 23.95 189.18C24.46 188.22 24.61 187.74 24.61 187.06C24.61 186.41 24.47 185.92 24.09 185.21C23.8 184.67 23.56 184.16 23.56 184.06C23.56 183.97 23.36 183.63 23.12 183.31C22.88 183 22.68 182.62 22.68 182.48C22.67 182.33 22.43 181.84 22.15 181.38C21.86 180.92 21.62 180.46 21.62 180.36C21.62 180.27 21.43 179.87 21.18 179.48C20.94 179.1 20.75 178.7 20.75 178.6C20.75 178.51 20.56 178.05 20.33 177.59C20.1 177.13 19.66 176.26 19.36 175.65C19.06 175.05 18.81 174.47 18.81 174.38C18.81 174.28 18.61 173.8 18.37 173.32C18.13 172.83 17.93 172.36 17.93 172.26C17.93 172.16 17.76 171.71 17.55 171.25C17.34 170.79 16.98 169.9 16.75 169.27C16.51 168.64 16.22 167.77 16.1 167.33C15.97 166.89 15.7 166.14 15.48 165.66C15.27 165.17 15.03 164.46 14.95 164.07C14.87 163.68 14.64 162.89 14.45 162.31C14.25 161.73 13.84 160.48 13.55 159.54C13.25 158.59 13.01 157.64 13.01 157.42C13.01 157.2 12.81 156.39 12.57 155.62C12.33 154.84 12.13 154.05 12.13 153.86C12.13 153.66 11.94 152.67 11.71 151.65C11.47 150.64 11.04 148.46 10.74 146.81C10.44 145.16 10.19 143.46 10.19 143.02C10.19 142.59 10.12 141.75 10.02 141.17C9.92 140.59 9.73 138.93 9.58 137.47C9.39 135.56 9.32 132.75 9.32 127.26C9.32 122.03 9.4 118.98 9.57 117.39C9.7 116.14 9.9 114.27 10.01 113.26C10.12 112.24 10.45 109.98 10.75 108.24C11.04 106.49 11.48 104.11 11.72 102.95C11.96 101.79 12.35 100.1 12.58 99.21C12.82 98.31 13.01 97.48 13.01 97.36C13 97.24 13.25 96.35 13.55 95.38C13.85 94.41 14.25 93.14 14.45 92.56C14.64 91.98 14.87 91.19 14.95 90.8C15.02 90.41 15.3 89.62 15.55 89.04C15.8 88.46 16.01 87.86 16 87.72C16 87.57 16.12 87.21 16.27 86.92C16.42 86.63 16.65 86.04 16.78 85.6C16.91 85.17 17.22 84.35 17.47 83.8C17.73 83.24 17.93 82.74 17.93 82.7C17.93 82.65 18.13 82.17 18.37 81.64C18.61 81.11 18.81 80.63 18.81 80.58C18.81 80.53 19.18 79.72 19.62 78.78C20.07 77.83 20.7 76.47 21.04 75.74C21.37 75.01 21.73 74.26 21.84 74.07C21.94 73.87 22.3 73.2 22.64 72.57C22.97 71.94 23.32 71.34 23.41 71.25C23.49 71.15 23.56 70.97 23.56 70.85C23.56 70.73 23.8 70.27 24.09 69.84C24.38 69.4 24.61 68.97 24.61 68.87C24.61 68.77 24.72 68.59 24.85 68.47C24.98 68.35 25.3 67.86 25.56 67.37C25.82 66.89 26.28 66.1 26.58 65.61C26.89 65.13 27.58 64.06 28.11 63.23C28.64 62.41 29.14 61.72 29.22 61.69C29.3 61.67 29.36 61.53 29.36 61.38C29.36 61.24 29.58 60.86 29.85 60.55C30.12 60.23 30.57 59.62 30.85 59.18C31.13 58.75 31.53 58.2 31.72 57.97C31.92 57.74 32.16 57.42 32.26 57.24C32.36 57.07 32.95 56.27 33.57 55.46C34.19 54.65 34.8 53.93 34.93 53.85C35.06 53.78 35.16 53.62 35.17 53.5C35.17 53.38 35.35 53.1 35.56 52.89C35.78 52.67 36.07 52.35 36.22 52.18C36.36 52 36.87 51.38 37.35 50.81C37.82 50.23 38.46 49.49 38.75 49.16C39.05 48.84 39.67 48.18 40.13 47.71C40.59 47.24 40.96 46.81 40.96 46.76C40.96 46.72 42.18 45.47 43.67 43.99C45.15 42.51 46.84 40.87 47.41 40.34C47.98 39.8 48.96 38.93 49.58 38.4C50.2 37.86 50.9 37.25 51.12 37.03C51.34 36.81 51.58 36.64 51.65 36.64C51.72 36.64 51.97 36.44 52.22 36.2C52.46 35.96 52.93 35.53 53.27 35.24C53.61 34.95 53.94 34.71 54.01 34.71C54.08 34.7 54.32 34.52 54.55 34.3C54.78 34.08 55.34 33.63 55.8 33.29C56.26 32.95 56.84 32.49 57.1 32.27C57.36 32.05 57.68 31.87 57.8 31.87C57.92 31.88 58.08 31.78 58.15 31.65C58.22 31.52 58.68 31.15 59.16 30.82C59.64 30.5 60.08 30.19 60.13 30.13C60.17 30.08 60.34 29.95 60.49 29.86C60.65 29.76 61.24 29.37 61.81 28.99C62.38 28.61 62.87 28.23 62.9 28.15C62.92 28.07 63.04 28.01 63.16 28.01C63.28 28.01 63.7 27.78 64.08 27.49C64.47 27.2 64.86 26.96 64.96 26.95C65.06 26.95 65.37 26.75 65.66 26.5C65.95 26.26 66.25 26.06 66.32 26.06C66.4 26.07 66.75 25.87 67.11 25.63C67.48 25.39 68.05 25.04 68.39 24.85C68.73 24.66 69.32 24.34 69.71 24.13C70.09 23.92 70.86 23.5 71.42 23.19C71.97 22.89 73.04 22.33 73.79 21.96C74.54 21.58 75.4 21.15 75.69 21C75.98 20.85 76.33 20.67 76.48 20.6C76.62 20.53 77.29 20.22 77.97 19.91C78.65 19.6 79.68 19.12 80.26 18.84C80.84 18.55 81.41 18.32 81.53 18.32C81.65 18.32 82.15 18.12 82.63 17.88C83.11 17.64 83.61 17.44 83.73 17.44C83.85 17.43 84.38 17.23 84.92 16.97C85.45 16.72 86.12 16.45 86.41 16.37C86.7 16.3 87.85 15.9 88.96 15.5C90.07 15.1 91.26 14.69 91.6 14.59C91.93 14.49 92.84 14.22 93.62 13.99C94.39 13.76 95.62 13.41 96.34 13.2C97.07 12.99 98.02 12.74 98.45 12.65C98.89 12.56 100 12.3 100.91 12.07C101.83 11.84 103.69 11.44 105.05 11.17C106.4 10.9 108.06 10.62 108.74 10.55C109.41 10.48 110.68 10.3 111.55 10.14C112.42 9.98 114.24 9.78 115.59 9.68C116.95 9.59 118.97 9.43 120.08 9.34C121.19 9.24 123.25 9.16 124.65 9.16C126.19 9.15 127.65 9.05 128.34 8.89C128.97 8.75 129.5 8.62 129.51 8.59C129.53 8.56 129.87 8.27 130.26 7.93C130.66 7.59 130.98 7.21 130.98 7.09C130.98 6.97 131.04 6.87 131.11 6.88C131.18 6.88 131.38 6.54 131.55 6.13C131.72 5.71 131.86 4.98 131.86 4.49C131.86 3.84 131.71 3.32 131.29 2.47C130.84 1.58 130.51 1.19 129.75 0.67L128.78 0.01C120.57 0.03 118.21 0.13 116.12 0.36ZM179.03 16.08C178.54 16.29 177.92 16.67 177.66 16.91C177.4 17.15 176.99 17.71 176.74 18.14C176.44 18.66 176.25 19.31 176.19 19.99C176.11 20.9 176.17 21.19 176.58 22.02C176.84 22.55 177.27 23.22 177.53 23.51C177.79 23.8 178.6 24.35 179.33 24.72C180.05 25.1 181.12 25.67 181.7 26C182.28 26.33 182.99 26.71 183.28 26.85C183.57 26.99 184.08 27.31 184.42 27.56C184.76 27.81 185.08 28.01 185.13 28C185.17 28 185.66 28.25 186.19 28.57C186.73 28.89 187.29 29.24 187.42 29.36C187.56 29.47 188.28 29.95 189.03 30.42C189.77 30.88 191.03 31.71 191.84 32.25C192.64 32.8 193.42 33.37 193.57 33.54C193.71 33.7 193.93 33.83 194.05 33.83C194.17 33.82 194.29 33.88 194.31 33.96C194.34 34.05 194.95 34.54 195.68 35.06C196.4 35.58 197.09 36.15 197.21 36.32C197.33 36.5 197.51 36.64 197.61 36.64C197.71 36.64 197.96 36.79 198.18 36.98C198.4 37.17 199.53 38.13 200.69 39.1C201.85 40.08 202.85 41 202.93 41.14C203 41.28 203.14 41.39 203.23 41.39C203.33 41.39 203.84 41.81 204.36 42.32C204.88 42.83 206.29 44.21 207.48 45.39C208.67 46.58 210.07 48.01 210.58 48.57C211.09 49.12 211.79 49.9 212.14 50.29C212.49 50.67 213.1 51.38 213.5 51.85C213.9 52.33 214.5 53.05 214.84 53.45C215.18 53.85 215.65 54.44 215.89 54.76C216.13 55.08 216.53 55.57 216.77 55.84C217.01 56.11 217.61 56.86 218.09 57.51C218.57 58.16 219.05 58.83 219.15 59.01C219.24 59.18 219.5 59.51 219.71 59.73C219.93 59.96 220.11 60.21 220.11 60.28C220.11 60.36 220.49 60.94 220.95 61.58C221.41 62.22 221.9 62.92 222.05 63.15C222.19 63.37 222.57 63.98 222.88 64.49C223.2 65.01 223.76 65.91 224.13 66.49C224.49 67.07 224.85 67.73 224.92 67.94C224.98 68.16 225.09 68.34 225.17 68.34C225.24 68.33 225.52 68.75 225.79 69.26C226.07 69.77 226.55 70.67 226.88 71.25C227.2 71.83 227.95 73.27 228.54 74.46C229.13 75.65 229.61 76.66 229.61 76.71C229.61 76.76 229.79 77.09 230.02 77.46C230.25 77.82 230.49 78.31 230.57 78.56C230.64 78.8 230.88 79.39 231.1 79.88C231.31 80.36 231.73 81.31 232.03 81.99C232.32 82.67 232.76 83.74 232.99 84.37C233.23 85 233.66 86.15 233.94 86.92C234.23 87.7 234.64 88.85 234.86 89.48C235.08 90.11 235.37 91.02 235.49 91.5C235.62 91.99 235.88 92.86 236.08 93.44C236.27 94.02 236.5 94.81 236.6 95.2C236.7 95.59 236.92 96.42 237.08 97.05C237.25 97.68 237.6 99.11 237.87 100.22C238.15 101.34 238.55 103.16 238.77 104.27C238.99 105.39 239.22 106.77 239.28 107.36C239.34 107.94 239.56 109.56 239.77 110.97C239.97 112.37 240.23 114.63 240.33 115.99C240.44 117.34 240.6 119.96 240.71 121.8C240.81 123.64 240.84 126.57 240.79 128.32C240.73 130.06 240.56 133.07 240.41 135.01C240.27 136.95 239.95 139.84 239.71 141.44C239.47 143.04 239.27 144.52 239.27 144.74C239.27 144.96 239.08 146.11 238.83 147.29C238.59 148.48 238.15 150.52 237.85 151.83C237.55 153.14 237.12 154.84 236.89 155.62C236.66 156.39 236.46 157.14 236.46 157.29C236.46 157.44 236.21 158.31 235.91 159.23C235.61 160.15 235.19 161.42 234.98 162.05C234.76 162.68 234.45 163.59 234.28 164.07C234.11 164.56 233.81 165.39 233.62 165.92C233.43 166.45 233.13 167.23 232.94 167.64C232.75 168.05 232.59 168.47 232.59 168.56C232.59 168.66 232.36 169.25 232.07 169.88C231.78 170.51 231.54 171.09 231.54 171.16C231.54 171.23 231.33 171.73 231.08 172.26C230.83 172.79 230.4 173.71 230.12 174.29C229.84 174.87 229.31 175.98 228.94 176.75C228.57 177.53 227.92 178.8 227.51 179.57C227.09 180.35 226.48 181.5 226.14 182.13C225.8 182.75 225.42 183.39 225.29 183.53C225.17 183.68 224.98 184 224.87 184.24C224.77 184.48 224.37 185.15 223.99 185.74C223.61 186.32 223.14 187.07 222.96 187.41C222.77 187.75 222.51 188.15 222.38 188.3C222.24 188.44 222.02 188.78 221.87 189.03C221.73 189.29 221.21 190.08 220.73 190.79C220.25 191.5 219.72 192.22 219.55 192.38C219.37 192.55 219.23 192.81 219.23 192.96C219.23 193.1 219.13 193.28 219 193.35C218.87 193.43 218.34 194.08 217.82 194.81C217.3 195.53 216.73 196.23 216.56 196.35C216.39 196.47 216.24 196.65 216.24 196.74C216.24 196.84 216.09 197.1 215.9 197.32C215.71 197.53 215.03 198.35 214.38 199.12C213.74 199.9 213.05 200.72 212.84 200.94C212.63 201.17 212.25 201.58 211.98 201.87C211.72 202.15 211.5 202.42 211.5 202.47C211.5 202.52 211.06 202.97 210.53 203.48C210 203.99 209.57 204.47 209.57 204.54C209.57 204.61 208.65 205.58 207.53 206.7C206.4 207.81 205.43 208.72 205.37 208.73C205.31 208.73 204.84 209.16 204.33 209.69C203.83 210.22 203.35 210.66 203.28 210.66C203.21 210.66 202.99 210.85 202.8 211.08C202.6 211.31 201.34 212.42 199.98 213.54C198.63 214.67 197.32 215.75 197.08 215.96C196.84 216.16 196.1 216.73 195.44 217.23C194.78 217.73 194.09 218.22 193.92 218.32C193.75 218.42 193.43 218.66 193.21 218.85C193 219.04 192.68 219.28 192.52 219.38C192.35 219.47 191.76 219.87 191.2 220.26C190.63 220.65 190 221.08 189.78 221.23C189.57 221.37 189.01 221.73 188.53 222.01C188.06 222.3 187.6 222.62 187.5 222.72C187.4 222.82 186.94 223.1 186.48 223.34C186.02 223.58 185.65 223.84 185.65 223.91C185.65 223.99 185.52 224.05 185.35 224.05C185.18 224.05 184.92 224.17 184.77 224.3C184.63 224.44 184.08 224.79 183.54 225.09C183.01 225.39 182.14 225.87 181.61 226.16C181.08 226.45 180.15 226.97 179.54 227.31C178.94 227.64 178.37 227.92 178.27 227.92C178.17 227.92 177.8 228.11 177.43 228.33C177.07 228.56 176.02 229.08 175.11 229.49C174.19 229.9 173.12 230.38 172.73 230.55C172.35 230.73 171.55 231.08 170.97 231.32C170.39 231.56 169.44 231.97 168.86 232.21C168.28 232.46 167.73 232.67 167.63 232.67C167.54 232.67 167.06 232.83 166.58 233.04C166.1 233.24 165.54 233.46 165.35 233.54C165.15 233.61 164.48 233.85 163.85 234.07C163.23 234.29 162.43 234.54 162.1 234.61C161.76 234.69 160.89 234.95 160.16 235.2C159.44 235.45 158.13 235.85 157.26 236.09C156.39 236.33 155.32 236.61 154.89 236.71C154.45 236.81 153.46 237.05 152.69 237.25C151.92 237.44 150.29 237.79 149.09 238.03C147.88 238.26 146.26 238.55 145.48 238.66C144.65 238.78 143.62 239.07 142.98 239.38C142.06 239.81 141.77 240.07 141.22 240.91C140.62 241.83 140.56 242.05 140.51 243.33C140.46 244.72 140.47 244.76 141.17 245.84C141.77 246.78 142.04 247.02 142.98 247.47C143.75 247.84 144.34 248 144.95 248C145.44 248 146.94 247.79 148.29 247.54C149.65 247.29 151.67 246.89 152.78 246.65C153.89 246.41 155.65 245.98 156.69 245.7C157.73 245.41 158.7 245.18 158.84 245.18C158.99 245.18 159.76 244.98 160.56 244.74C161.36 244.49 162.6 244.1 163.33 243.86C164.05 243.62 164.78 243.42 164.95 243.42C165.12 243.42 165.77 243.18 166.4 242.89C167.03 242.6 167.7 242.36 167.9 242.36C168.09 242.36 168.66 242.17 169.17 241.93C169.68 241.68 170.21 241.48 170.36 241.48C170.5 241.48 171.1 241.24 171.68 240.95C172.26 240.67 172.81 240.43 172.91 240.43C173 240.44 173.56 240.23 174.14 239.98C174.72 239.73 175.75 239.28 176.42 238.98C177.1 238.68 178.09 238.24 178.62 238C179.15 237.76 179.75 237.49 179.94 237.38C180.13 237.28 180.96 236.85 181.79 236.43C182.61 236.01 183.34 235.66 183.41 235.66C183.48 235.67 183.9 235.43 184.34 235.14C184.77 234.85 185.21 234.61 185.3 234.61C185.4 234.61 185.72 234.47 186 234.31C186.29 234.14 186.53 233.94 186.53 233.87C186.53 233.79 186.67 233.73 186.84 233.74C187.01 233.74 187.43 233.53 187.76 233.28C188.1 233.03 188.62 232.71 188.91 232.57C189.2 232.43 189.87 232.04 190.4 231.71C190.93 231.37 191.59 231.02 191.85 230.92C192.12 230.82 192.33 230.68 192.33 230.61C192.33 230.53 192.7 230.26 193.16 230.01C193.63 229.75 194.12 229.41 194.27 229.25C194.41 229.09 194.57 228.97 194.62 228.98C194.67 228.98 195.22 228.65 195.85 228.24C196.48 227.83 197.05 227.39 197.13 227.27C197.2 227.14 197.36 227.04 197.48 227.04C197.6 227.05 197.93 226.85 198.22 226.6C198.51 226.36 199.19 225.86 199.72 225.5C200.25 225.14 200.84 224.71 201.04 224.54C201.23 224.37 202.3 223.52 203.41 222.65C204.52 221.77 205.64 220.88 205.89 220.66C206.14 220.44 206.81 219.86 207.38 219.38C207.94 218.89 208.84 218.1 209.38 217.62C209.91 217.13 210.95 216.17 211.67 215.47C212.4 214.77 213.31 213.89 213.7 213.52C214.08 213.14 215.07 212.12 215.89 211.25C216.72 210.39 217.78 209.24 218.27 208.71C218.76 208.19 220 206.74 221.04 205.51C222.08 204.27 222.93 203.18 222.93 203.09C222.93 202.99 222.98 202.91 223.06 202.91C223.13 202.91 223.5 202.5 223.88 201.99C224.27 201.48 224.64 200.98 224.71 200.88C224.79 200.79 225.09 200.43 225.38 200.09C225.68 199.75 225.92 199.38 225.92 199.25C225.91 199.13 225.97 199.03 226.05 199.03C226.12 199.03 226.37 198.73 226.61 198.37C226.84 198.01 227.2 197.53 227.4 197.3C227.6 197.07 227.84 196.74 227.94 196.57C228.03 196.4 228.43 195.79 228.81 195.23C229.19 194.66 229.59 194.06 229.69 193.91C229.79 193.75 230.02 193.39 230.2 193.11C230.38 192.83 230.76 192.27 231.04 191.86C231.31 191.44 231.54 191.05 231.54 190.98C231.54 190.9 231.74 190.57 231.99 190.23C232.24 189.89 232.56 189.37 232.7 189.08C232.84 188.79 233.23 188.12 233.56 187.59C233.89 187.05 234.26 186.42 234.39 186.18C234.51 185.93 234.79 185.44 235.01 185.08C235.23 184.71 235.41 184.34 235.41 184.24C235.41 184.14 235.65 183.71 235.94 183.27C236.23 182.83 236.46 182.4 236.46 182.3C236.46 182.2 236.66 181.81 236.9 181.42C237.14 181.03 237.34 180.66 237.34 180.58C237.33 180.51 237.57 179.98 237.85 179.39C238.14 178.81 238.59 177.86 238.86 177.28C239.12 176.7 239.52 175.85 239.74 175.39C239.97 174.93 240.16 174.45 240.16 174.33C240.16 174.21 240.4 173.64 240.69 173.05C240.98 172.47 241.21 171.9 241.21 171.78C241.21 171.66 241.4 171.14 241.63 170.63C241.86 170.12 242.14 169.43 242.26 169.09C242.37 168.75 242.78 167.6 243.17 166.54C243.56 165.47 243.94 164.28 244.03 163.89C244.11 163.51 244.33 162.83 244.52 162.4C244.71 161.96 244.92 161.29 244.99 160.9C245.06 160.51 245.3 159.6 245.51 158.88C245.73 158.15 246.08 156.88 246.29 156.06C246.49 155.23 246.74 154.24 246.83 153.86C246.92 153.47 247.19 152.2 247.43 151.04C247.67 149.87 248.1 147.46 248.4 145.66C248.69 143.87 249.11 140.9 249.32 139.06C249.58 136.83 249.74 134.1 249.81 130.87C249.87 128.21 249.86 123.77 249.79 121.01C249.72 118.24 249.54 115.03 249.39 113.87C249.24 112.71 249.07 111.2 249.02 110.53C248.97 109.85 248.69 107.91 248.4 106.21C248.11 104.51 247.7 102.37 247.5 101.45C247.3 100.53 247.08 99.38 247.01 98.9C246.94 98.42 246.67 97.35 246.42 96.52C246.17 95.7 245.96 94.87 245.96 94.67C245.96 94.48 245.75 93.65 245.51 92.82C245.26 92 244.86 90.73 244.61 90.01C244.37 89.28 244.11 88.41 244.04 88.07C243.97 87.73 243.75 87.02 243.55 86.48C243.35 85.95 243.05 85.12 242.88 84.63C242.71 84.15 242.33 83.12 242.05 82.34C241.76 81.57 241.41 80.62 241.27 80.23C241.13 79.84 240.83 79.13 240.6 78.64C240.38 78.16 239.98 77.25 239.71 76.62C239.44 75.99 239.03 75.04 238.79 74.51C238.55 73.97 238.25 73.34 238.13 73.1C238 72.85 237.79 72.42 237.64 72.13C237.5 71.84 237.09 71 236.73 70.28C236.36 69.55 235.79 68.44 235.46 67.81C235.13 67.18 234.79 66.59 234.69 66.49C234.6 66.39 234.52 66.22 234.53 66.1C234.53 65.97 234.29 65.52 234 65.08C233.71 64.65 233.47 64.21 233.47 64.11C233.47 64.02 233.37 63.84 233.24 63.72C233.11 63.6 232.86 63.22 232.69 62.88C232.52 62.54 232.19 62.01 231.96 61.69C231.73 61.38 231.54 61 231.54 60.86C231.54 60.71 231.48 60.59 231.41 60.6C231.34 60.6 231.06 60.22 230.79 59.76C230.51 59.3 229.94 58.42 229.51 57.82C229.08 57.21 228.73 56.64 228.73 56.54C228.73 56.44 228.53 56.19 228.29 55.97C228.05 55.75 227.85 55.51 227.85 55.44C227.85 55.37 227.38 54.65 226.81 53.85C226.23 53.05 225.66 52.28 225.53 52.13C225.4 51.98 224.95 51.39 224.51 50.81C224.08 50.23 223.53 49.51 223.28 49.21C223.04 48.91 222.64 48.41 222.4 48.1C222.16 47.79 221.74 47.32 221.47 47.06C221.2 46.8 220.98 46.49 220.99 46.37C220.99 46.25 220.93 46.15 220.86 46.15C220.79 46.16 220.17 45.5 219.5 44.7C218.82 43.9 217.63 42.58 216.86 41.76C216.09 40.94 214.86 39.66 214.14 38.9C213.41 38.15 212.78 37.53 212.73 37.53C212.68 37.52 211.96 36.87 211.14 36.07C210.31 35.27 208.98 34.06 208.19 33.38C207.39 32.7 206.74 32.09 206.75 32.01C206.75 31.94 206.67 31.88 206.58 31.88C206.48 31.88 205.9 31.45 205.3 30.92C204.7 30.39 204.14 29.95 204.07 29.95C204 29.95 203.75 29.76 203.53 29.55C203.3 29.33 202.74 28.87 202.29 28.53C201.83 28.2 201.21 27.7 200.9 27.43C200.59 27.16 200.24 26.95 200.11 26.95C199.99 26.95 199.9 26.89 199.9 26.82C199.9 26.74 199.46 26.37 198.91 25.98C198.36 25.59 197.73 25.16 197.52 25.01C197.31 24.87 196.67 24.43 196.11 24.04C195.55 23.66 194.96 23.26 194.81 23.16C194.65 23.07 194.27 22.81 193.96 22.59C193.65 22.37 193.33 22.19 193.26 22.19C193.19 22.19 192.89 22 192.6 21.77C192.31 21.55 191.89 21.31 191.68 21.25C191.46 21.19 191.28 21.08 191.28 21C191.28 20.93 190.99 20.72 190.62 20.53C190.26 20.34 189.84 20.09 189.7 19.97C189.55 19.86 189.06 19.55 188.6 19.3C188.14 19.05 187.43 18.66 187.02 18.43C186.61 18.21 185.76 17.74 185.13 17.41C184.5 17.07 183.83 16.7 183.63 16.6C183.44 16.49 182.92 16.24 182.49 16.04C182.02 15.83 181.34 15.68 180.82 15.69C180.31 15.69 179.56 15.86 179.03 16.08Z" />
		<path class="shp1" d="M117.53 22.29C117.33 22.32 115.67 22.52 113.84 22.72C112 22.92 109.15 23.32 107.51 23.62C105.86 23.91 103.61 24.35 102.5 24.59C101.38 24.84 100.04 25.16 99.51 25.3C98.98 25.44 98.07 25.68 97.49 25.84C96.91 25.99 95.88 26.29 95.2 26.51C94.52 26.73 93.69 26.97 93.35 27.04C93.02 27.11 92.32 27.36 91.82 27.59C91.31 27.82 90.77 28.01 90.63 28.01C90.48 28.01 89.95 28.19 89.44 28.42C88.94 28.64 88.3 28.88 88.04 28.94C87.77 29.01 87.14 29.26 86.63 29.51C86.12 29.75 85.61 29.95 85.49 29.95C85.37 29.94 84.89 30.14 84.43 30.39C83.97 30.63 83.54 30.83 83.47 30.83C83.39 30.83 82.6 31.17 81.71 31.6C80.81 32.03 79.65 32.58 79.11 32.82C78.58 33.07 77.43 33.66 76.56 34.13C75.69 34.6 74.51 35.25 73.93 35.57C73.35 35.89 72.74 36.26 72.58 36.39C72.42 36.53 72.22 36.64 72.14 36.64C72.06 36.64 71.67 36.86 71.27 37.12C70.87 37.39 70.27 37.76 69.95 37.96C69.63 38.15 69.17 38.45 68.92 38.61C68.68 38.78 68.2 39.07 67.86 39.26C67.52 39.44 67.03 39.8 66.76 40.05C66.5 40.31 66.16 40.51 66.02 40.51C65.87 40.51 65.73 40.58 65.71 40.65C65.68 40.73 65.27 41.06 64.79 41.39C64.3 41.72 63.85 42.09 63.77 42.22C63.7 42.34 63.5 42.45 63.34 42.45C63.17 42.45 62.87 42.65 62.68 42.89C62.48 43.14 62.23 43.34 62.1 43.33C61.98 43.33 61.86 43.39 61.84 43.46C61.82 43.53 61.28 44.01 60.65 44.51C60.03 45.01 59.35 45.58 59.16 45.78C58.97 45.97 58.75 46.14 58.68 46.14C58.6 46.14 58.32 46.37 58.05 46.63C57.77 46.9 57.04 47.55 56.42 48.09C55.81 48.62 54.74 49.56 54.07 50.18C53.39 50.8 52.28 51.88 51.6 52.57C50.92 53.27 49.85 54.39 49.23 55.06C48.6 55.73 47.77 56.64 47.38 57.07C46.99 57.51 46.02 58.63 45.23 59.58C44.43 60.52 43.78 61.37 43.78 61.47C43.78 61.57 43.72 61.64 43.64 61.64C43.57 61.64 43.2 62.07 42.81 62.61C42.42 63.15 42.05 63.59 41.97 63.59C41.9 63.59 41.84 63.68 41.84 63.81C41.84 63.93 41.66 64.21 41.44 64.44C41.23 64.67 40.97 65 40.88 65.17C40.78 65.34 40.34 65.99 39.91 66.6C39.47 67.22 39.04 67.85 38.94 68C38.85 68.16 38.47 68.73 38.11 69.28C37.74 69.83 37.37 70.32 37.27 70.37C37.17 70.41 37.1 70.57 37.1 70.72C37.1 70.86 36.94 71.16 36.74 71.38C36.54 71.6 36.26 72.05 36.1 72.39C35.94 72.73 35.76 73.05 35.69 73.1C35.62 73.15 35.35 73.58 35.09 74.07C34.83 74.55 34.43 75.26 34.21 75.65C33.99 76.04 33.54 76.87 33.2 77.5C32.86 78.13 32.5 78.8 32.4 79C32.3 79.19 32.13 79.63 32.02 79.97C31.91 80.3 31.82 80.88 31.82 81.24C31.82 81.61 31.92 82.28 32.04 82.74C32.2 83.38 32.5 83.82 33.27 84.59C34.21 85.53 34.36 85.61 35.29 85.71C35.85 85.77 36.74 85.77 37.27 85.7C37.97 85.61 38.46 85.42 39.03 84.99C39.46 84.66 40.02 84.03 40.26 83.59C40.5 83.15 40.76 82.78 40.83 82.78C40.9 82.78 40.96 82.67 40.96 82.52C40.96 82.37 41.29 81.68 41.69 80.98C42.09 80.28 42.54 79.46 42.68 79.17C42.83 78.88 43.13 78.39 43.36 78.07C43.59 77.76 43.78 77.38 43.78 77.24C43.78 77.09 43.84 76.97 43.91 76.97C43.98 76.97 44.27 76.56 44.55 76.05C44.84 75.54 45.12 75.08 45.19 75.03C45.25 74.99 45.65 74.39 46.06 73.71C46.48 73.03 46.99 72.29 47.19 72.06C47.39 71.84 47.64 71.51 47.73 71.33C47.83 71.16 48.17 70.63 48.5 70.16C48.83 69.69 49.2 69.25 49.34 69.18C49.47 69.1 49.58 68.93 49.58 68.78C49.58 68.64 49.68 68.46 49.8 68.38C49.92 68.31 50.35 67.82 50.75 67.28C51.16 66.75 51.72 66.04 52.01 65.7C52.3 65.36 52.72 64.86 52.95 64.58C53.17 64.31 53.62 63.79 53.94 63.44C54.26 63.08 54.91 62.4 55.38 61.91C55.86 61.43 56.25 60.97 56.25 60.9C56.26 60.83 56.98 60.07 57.86 59.23C58.75 58.38 59.93 57.25 60.49 56.72C61.05 56.18 61.73 55.55 62.01 55.31C62.28 55.06 62.94 54.5 63.47 54.04C64 53.59 64.83 52.9 65.31 52.5C65.8 52.1 66.37 51.61 66.59 51.42C66.81 51.23 67.04 51.08 67.11 51.08C67.19 51.09 67.48 50.85 67.77 50.55C68.06 50.26 68.4 50.02 68.52 50.02C68.64 50.02 68.76 49.96 68.79 49.88C68.81 49.8 69.22 49.47 69.71 49.14C70.19 48.82 70.65 48.45 70.72 48.32C70.79 48.19 70.91 48.09 70.98 48.09C71.06 48.1 71.63 47.76 72.26 47.35C72.89 46.94 73.5 46.5 73.63 46.37C73.76 46.25 73.94 46.15 74.03 46.15C74.12 46.15 74.45 45.95 74.76 45.71C75.08 45.47 75.41 45.27 75.51 45.27C75.61 45.26 75.94 45.06 76.26 44.82C76.57 44.58 76.95 44.39 77.09 44.39C77.24 44.39 77.38 44.33 77.4 44.25C77.42 44.18 77.7 43.94 78.02 43.73C78.33 43.51 78.69 43.33 78.82 43.33C78.94 43.33 79.12 43.25 79.21 43.16C79.3 43.07 79.89 42.73 80.52 42.4C81.15 42.07 81.82 41.72 82.01 41.61C82.21 41.5 83.28 40.99 84.39 40.46C85.5 39.94 86.88 39.3 87.46 39.05C88.05 38.8 89.07 38.35 89.75 38.05C90.43 37.75 91.08 37.51 91.2 37.51C91.32 37.51 91.68 37.38 91.99 37.22C92.31 37.06 93.04 36.79 93.62 36.62C94.2 36.45 95.11 36.16 95.64 35.96C96.17 35.77 97.26 35.41 98.06 35.16C98.86 34.9 99.63 34.7 99.77 34.7C99.92 34.7 100.65 34.5 101.4 34.26C102.15 34.01 102.94 33.81 103.16 33.81C103.37 33.82 104.28 33.62 105.18 33.37C106.07 33.12 107.32 32.86 107.95 32.78C108.58 32.7 110.16 32.47 111.46 32.26C112.77 32.06 114.71 31.81 115.77 31.71C116.83 31.61 118.97 31.44 120.52 31.33C122.06 31.22 124.99 31.17 127.02 31.23C129.05 31.28 132.18 31.45 133.97 31.61C135.76 31.77 138.37 32.1 139.77 32.33C141.17 32.57 142.48 32.76 142.67 32.76C142.86 32.76 144.09 33 145.39 33.3C146.7 33.61 148.52 34.05 149.44 34.29C150.36 34.53 151.78 34.92 152.6 35.16C153.42 35.4 154.57 35.76 155.15 35.96C155.73 36.17 156.52 36.42 156.91 36.53C157.3 36.65 158.01 36.91 158.49 37.13C158.98 37.35 159.47 37.52 159.59 37.52C159.71 37.52 160.3 37.76 160.91 38.05C161.51 38.34 162.09 38.58 162.18 38.57C162.28 38.57 162.75 38.76 163.24 38.99C163.72 39.22 164.63 39.65 165.26 39.94C165.89 40.23 167.11 40.82 167.99 41.25C168.86 41.68 170.28 42.41 171.15 42.88C172.02 43.35 172.93 43.88 173.17 44.07C173.41 44.25 173.67 44.4 173.74 44.39C173.82 44.39 174.37 44.7 174.97 45.09C175.58 45.48 176.27 45.9 176.51 46.02C176.75 46.14 177.1 46.35 177.28 46.5C177.46 46.65 177.7 46.85 177.81 46.96C177.92 47.06 178.16 47.2 178.36 47.26C178.55 47.32 178.87 47.53 179.06 47.73C179.25 47.93 179.49 48.09 179.59 48.09C179.69 48.09 180.02 48.32 180.34 48.61C180.65 48.9 180.97 49.14 181.04 49.14C181.11 49.14 181.37 49.31 181.6 49.53C181.84 49.75 182.17 50.01 182.33 50.11C182.49 50.21 183.29 50.79 184.09 51.4C184.9 52.02 185.63 52.63 185.7 52.77C185.77 52.91 185.95 53.02 186.09 53.02C186.24 53.02 186.48 53.22 186.62 53.46C186.77 53.7 186.96 53.9 187.06 53.9C187.16 53.9 187.69 54.31 188.23 54.82C188.78 55.33 190.03 56.5 191 57.42C191.98 58.34 193.57 59.93 194.53 60.95C195.5 61.98 196.71 63.27 197.21 63.82C197.72 64.37 198.13 64.88 198.13 64.95C198.13 65.02 198.44 65.34 198.83 65.65C199.22 65.97 199.88 66.35 200.29 66.5C200.7 66.64 201.39 66.76 201.83 66.76C202.26 66.76 203.02 66.64 203.5 66.49C203.98 66.34 204.64 65.96 204.96 65.65C205.28 65.34 205.73 64.69 205.96 64.2C206.27 63.57 206.39 63.03 206.39 62.26C206.39 61.46 206.28 60.98 205.91 60.27C205.65 59.75 205.06 58.92 204.59 58.42C204.13 57.92 203.76 57.47 203.75 57.42C203.75 57.37 203.52 57.09 203.23 56.8C202.94 56.51 201.3 54.85 199.57 53.11C197.85 51.36 196.05 49.58 195.57 49.14C195.1 48.71 194.11 47.83 193.37 47.2C192.63 46.57 191.77 45.86 191.45 45.62C191.14 45.38 190.71 45.02 190.51 44.83C190.31 44.63 190.01 44.4 189.85 44.3C189.69 44.2 189.02 43.71 188.36 43.21C187.69 42.71 186.91 42.1 186.62 41.85C186.33 41.61 185.99 41.4 185.87 41.4C185.75 41.4 185.65 41.33 185.66 41.26C185.66 41.19 185.22 40.87 184.69 40.56C184.16 40.24 183.72 39.9 183.72 39.81C183.72 39.71 183.54 39.58 183.32 39.51C183.11 39.44 182.32 38.97 181.57 38.45C180.82 37.94 180.16 37.52 180.12 37.52C180.07 37.52 179.77 37.34 179.46 37.12C179.14 36.91 178.65 36.6 178.36 36.44C178.07 36.29 177.45 35.95 177 35.69C176.54 35.44 175.78 35.02 175.33 34.77C174.87 34.52 174.25 34.19 173.96 34.04C173.67 33.89 173.28 33.69 173.08 33.59C172.89 33.49 172.02 33.05 171.15 32.63C170.28 32.2 169.09 31.62 168.51 31.34C167.93 31.06 167.38 30.82 167.28 30.82C167.19 30.82 166.71 30.62 166.23 30.38C165.74 30.14 165.27 29.95 165.17 29.95C165.08 29.95 164.52 29.72 163.94 29.44C163.36 29.17 162.67 28.89 162.4 28.82C162.14 28.76 161.58 28.56 161.17 28.38C160.76 28.2 160.03 27.94 159.55 27.79C159.06 27.64 158.31 27.39 157.88 27.24C157.44 27.09 156.41 26.77 155.59 26.52C154.77 26.28 153.23 25.85 152.16 25.56C151.1 25.27 149.36 24.84 148.29 24.6C147.23 24.36 144.98 23.92 143.28 23.62C141.59 23.33 138.82 22.91 137.13 22.69C134.39 22.34 133.17 22.29 125.97 22.26C121.52 22.24 117.72 22.26 117.53 22.29Z" />
		<path class="shp2" d="M128.64 46.45C128.58 46.52 128.65 47.66 128.78 48.97C128.92 50.27 129.16 52.57 129.31 54.07C129.46 55.58 129.7 57.99 129.85 59.45C129.99 60.9 130.31 63.91 130.55 66.14C130.79 68.37 130.98 70.47 130.98 70.81C130.97 71.15 131.17 73.17 131.41 75.3C131.65 77.43 131.92 80.05 132.01 81.11C132.11 82.18 132.35 84.63 132.55 86.57C132.76 88.51 133.12 91.92 133.35 94.14C133.58 96.37 133.82 98.91 133.88 99.78C133.94 100.65 134.14 102.56 134.33 104.01C134.52 105.46 134.75 107.78 134.85 109.16C134.94 110.54 135.06 111.87 135.11 112.11C135.16 112.35 135.32 112.55 135.46 112.55C135.61 112.55 135.72 112.49 135.72 112.42C135.71 112.35 136.16 111.97 136.71 111.58C137.26 111.19 137.85 110.8 138.02 110.7C138.18 110.6 138.51 110.35 138.74 110.13C138.97 109.92 139.23 109.74 139.33 109.74C139.43 109.73 139.76 109.49 140.08 109.2C140.39 108.91 140.71 108.68 140.78 108.68C140.85 108.68 141.13 108.5 141.39 108.28C141.65 108.06 142.27 107.61 142.76 107.27C143.26 106.93 143.9 106.47 144.18 106.25C144.46 106.04 144.75 105.86 144.82 105.86C144.89 105.87 145.11 105.7 145.31 105.5C145.5 105.3 146.13 104.82 146.71 104.45C147.29 104.08 147.87 103.57 147.99 103.32C148.11 103.07 148.21 102.76 148.21 102.64C148.21 102.52 148.43 101.83 148.71 101.1C148.98 100.38 149.43 99.07 149.7 98.2C149.97 97.32 150.34 96.21 150.52 95.73C150.71 95.25 150.92 94.57 151.01 94.23C151.09 93.89 151.49 92.7 151.9 91.59C152.31 90.48 152.78 89.09 152.95 88.51C153.13 87.93 153.45 86.94 153.67 86.31C153.89 85.68 154.25 84.67 154.48 84.06C154.7 83.46 154.89 82.84 154.89 82.7C154.89 82.55 155.11 81.86 155.39 81.15C155.66 80.45 156.03 79.48 156.2 79C156.37 78.51 156.65 77.64 156.82 77.06C156.99 76.48 157.32 75.49 157.54 74.86C157.76 74.23 158.11 73.2 158.32 72.57C158.53 71.94 158.87 70.95 159.07 70.37C159.27 69.79 159.53 69.03 159.65 68.69C159.77 68.35 160.04 67.56 160.25 66.93C160.46 66.3 160.8 65.27 161.01 64.64C161.22 64.01 161.37 63.49 161.35 63.47C161.32 63.46 160.95 63.51 160.51 63.58C160.08 63.66 159.01 63.9 158.14 64.11C157.27 64.32 155.69 64.73 154.62 65C153.56 65.28 151.9 65.69 150.93 65.93C149.96 66.17 148.5 66.53 147.68 66.73C146.86 66.94 145.83 67.2 145.39 67.3C144.96 67.4 143.89 67.67 143.02 67.9C142.15 68.12 141.1 68.36 140.69 68.41L139.94 68.52C138.98 66.4 138.61 65.63 138.5 65.43C138.39 65.24 138.03 64.57 137.7 63.94C137.36 63.31 137.02 62.71 136.93 62.62C136.84 62.52 136.77 62.34 136.78 62.22C136.78 62.1 136.54 61.6 136.25 61.12C135.96 60.63 135.72 60.16 135.72 60.06C135.72 59.97 135.53 59.57 135.28 59.18C135.04 58.79 134.85 58.4 134.85 58.3C134.85 58.2 134.61 57.77 134.32 57.33C134.03 56.9 133.79 56.46 133.79 56.36C133.79 56.27 133.59 55.87 133.35 55.48C133.11 55.1 132.91 54.68 132.91 54.56C132.9 54.44 132.67 53.96 132.38 53.5C132.09 53.04 131.86 52.57 131.86 52.44C131.86 52.32 131.79 52.15 131.69 52.05C131.6 51.95 130.89 50.62 130.13 49.09C129.36 47.56 128.69 46.37 128.64 46.45Z" />
		<path class="shp0" d="M127.55 47.55C127.3 47.94 127.1 48.37 127.11 48.52C127.11 48.67 127.03 48.83 126.93 48.88C126.84 48.93 126.11 50.29 125.32 51.92C124.52 53.54 123.81 54.95 123.73 55.04C123.65 55.14 122.81 56.76 121.85 58.65C120.9 60.54 119.98 62.37 119.81 62.7C119.63 63.04 119.41 63.48 119.32 63.67C119.22 63.87 118.8 64.7 118.37 65.52C117.95 66.35 117.61 67.1 117.61 67.2C117.61 67.29 117.42 67.61 117.19 67.9C116.81 68.39 116.72 68.42 115.92 68.32C115.45 68.27 114.39 68.05 113.57 67.83C112.75 67.62 111.21 67.22 110.14 66.94C109.08 66.66 107.5 66.26 106.63 66.04C105.76 65.83 104.69 65.59 104.25 65.51C103.82 65.43 102.79 65.17 101.97 64.92C101.15 64.67 100.32 64.47 100.12 64.47C99.93 64.46 99.14 64.27 98.36 64.04C97.59 63.81 96.62 63.57 96.21 63.51C95.76 63.45 95.46 63.48 95.46 63.59C95.46 63.68 95.71 64.42 96.01 65.21C96.31 66.01 96.74 67.18 96.97 67.81C97.21 68.44 97.4 69.06 97.4 69.18C97.4 69.3 97.63 70.01 97.9 70.76C98.18 71.51 98.59 72.64 98.8 73.27C99.01 73.9 99.29 74.77 99.42 75.21C99.54 75.65 99.98 76.91 100.38 78.03C100.78 79.14 101.21 80.41 101.34 80.85C101.47 81.28 101.7 82 101.85 82.43C102 82.87 102.35 83.86 102.62 84.63C102.88 85.41 103.19 86.36 103.3 86.75C103.41 87.13 103.65 87.85 103.82 88.33C103.99 88.82 104.34 89.81 104.6 90.53C104.86 91.26 105.25 92.37 105.47 93C105.69 93.63 105.93 94.42 106.01 94.76C106.08 95.1 106.32 95.81 106.53 96.35C106.75 96.88 107.03 97.67 107.15 98.11C107.27 98.54 107.51 99.3 107.69 99.78C107.86 100.27 108.22 101.26 108.48 101.98C108.75 102.71 109.01 103.44 109.07 103.61C109.13 103.78 109.28 103.92 109.4 103.91C109.52 103.91 109.74 104.04 109.88 104.2C110.03 104.37 110.42 104.67 110.76 104.89C111.1 105.1 111.5 105.39 111.65 105.52C111.8 105.66 112.04 105.85 112.19 105.95C112.34 106.04 112.77 106.33 113.15 106.59C113.53 106.85 114.27 107.39 114.8 107.78C115.33 108.17 115.95 108.58 116.17 108.67C116.38 108.77 116.56 108.91 116.56 108.98C116.56 109.06 117 109.39 117.53 109.73C118.06 110.07 118.49 110.41 118.49 110.48C118.49 110.55 118.59 110.61 118.71 110.61C118.84 110.61 119.13 110.79 119.37 111.01C119.61 111.23 120.19 111.66 120.65 111.98C121.11 112.29 121.54 112.5 121.62 112.45C121.69 112.39 121.89 110.86 122.06 109.06C122.24 107.25 122.54 104.3 122.74 102.51C122.94 100.72 123.17 98.3 123.25 97.14C123.33 95.98 123.6 93.38 123.85 91.37C124.1 89.36 124.3 87.34 124.3 86.88C124.3 86.42 124.5 84.46 124.74 82.52C124.98 80.58 125.17 78.64 125.17 78.2C125.17 77.77 125.4 75.31 125.69 72.74C125.98 70.18 126.38 66.45 126.59 64.47C126.8 62.48 127.04 59.9 127.12 58.74C127.2 57.58 127.46 55 127.71 53.02C127.95 51.03 128.17 48.83 128.2 48.13C128.23 47.43 128.19 46.85 128.12 46.85C128.05 46.85 127.79 47.17 127.55 47.55ZM84.7 89.99C84.53 90.29 84.31 90.53 84.21 90.53C84.12 90.53 84.03 90.63 84.03 90.75C84.03 90.88 83.81 91.22 83.55 91.51C83.28 91.81 82.67 92.6 82.19 93.26C81.71 93.92 81.21 94.63 81.09 94.83C80.97 95.04 80.81 95.24 80.73 95.29C80.66 95.34 80.17 95.97 79.65 96.7C79.13 97.43 78.6 98.08 78.47 98.15C78.34 98.22 78.24 98.38 78.24 98.5C78.24 98.63 78.04 98.92 77.8 99.16C77.55 99.41 77.35 99.66 77.35 99.74C77.35 99.81 77.14 100.1 76.87 100.38L76.39 100.9C75.3 100.37 74.75 100.14 74.45 100.04C74.16 99.95 73.61 99.71 73.22 99.52C72.84 99.32 72.42 99.16 72.3 99.16C72.18 99.16 71.75 98.98 71.33 98.75C70.92 98.53 70.27 98.24 69.88 98.11C69.5 97.98 68.9 97.73 68.57 97.55C68.23 97.37 67.85 97.23 67.73 97.23C67.61 97.23 67.04 96.99 66.46 96.7C65.88 96.41 65.32 96.17 65.23 96.17C65.13 96.17 64.59 95.96 64.04 95.71C63.48 95.46 62.53 95.02 61.93 94.74C61.32 94.46 60.75 94.23 60.65 94.23C60.56 94.23 60.06 94.03 59.56 93.79C59.05 93.55 58.57 93.35 58.5 93.35C58.43 93.35 57.87 93.12 57.27 92.84C56.67 92.55 55.95 92.27 55.69 92.22C55.33 92.15 55.2 92.19 55.2 92.38C55.2 92.53 55.43 93.3 55.71 94.1C55.99 94.9 56.4 96.11 56.62 96.79C56.83 97.47 57.07 98.26 57.15 98.55C57.22 98.84 57.47 99.63 57.71 100.31C57.94 100.99 58.36 102.26 58.63 103.13C58.9 104 59.3 105.23 59.53 105.86C59.75 106.49 60.01 107.32 60.1 107.71C60.19 108.09 60.44 108.93 60.65 109.56C60.86 110.19 61.19 111.18 61.39 111.76C61.58 112.34 61.81 113.13 61.89 113.52C61.97 113.91 62.24 114.72 62.49 115.33C62.74 115.93 62.94 116.58 62.94 116.78C62.94 116.97 63.1 117.49 63.29 117.92C63.48 118.36 63.64 118.76 63.64 118.8C63.64 118.85 62.55 119.41 61.23 120.05C59.9 120.68 58.57 121.32 58.28 121.47C57.99 121.62 57.56 121.85 57.31 121.98C57.07 122.11 56.32 122.48 55.64 122.79C54.97 123.11 54.12 123.55 53.75 123.77C53.39 123.99 52.98 124.18 52.83 124.18C52.69 124.18 52.25 124.37 51.86 124.62C51.48 124.86 51.08 125.06 50.98 125.06C50.89 125.06 50.43 125.29 49.97 125.58C49.24 126.04 49.19 126.11 49.58 126.12C49.82 126.12 52.19 125.89 54.85 125.59C57.51 125.3 61.59 124.86 63.91 124.62C66.23 124.37 68.36 124.17 68.65 124.18C68.94 124.18 71.32 123.95 73.93 123.66C76.54 123.37 80.3 122.96 82.28 122.75C84.26 122.54 86.79 122.3 87.9 122.23C89.02 122.15 91.57 121.88 93.57 121.63C95.58 121.38 97.52 121.18 97.88 121.19C98.24 121.19 100.36 121 102.58 120.75C104.81 120.51 107.93 120.19 109.53 120.03C111.12 119.87 112.64 119.69 112.91 119.63C113.32 119.52 113.35 119.48 113.13 119.24C113 119.1 112.38 118.46 111.78 117.82C111.17 117.17 110.01 115.95 109.2 115.08C108.39 114.22 107.12 112.89 106.38 112.11C105.64 111.34 103.93 109.51 102.58 108.06C101.23 106.61 99.51 104.8 98.76 104.05C98.01 103.3 97.4 102.65 97.4 102.6C97.4 102.55 96.78 101.88 96.04 101.11C95.29 100.34 94.08 99.08 93.35 98.31C92.63 97.55 91.13 95.95 90.01 94.77C88.9 93.58 87.32 91.9 86.5 91.03L85 89.45" />
		<path class="shp1" d="M170.97 90.41C170.51 90.91 169.06 92.48 167.74 93.88C166.43 95.29 164.79 97.03 164.1 97.76C163.41 98.48 162.18 99.78 161.37 100.65C160.56 101.51 159.42 102.71 158.84 103.32C158.26 103.92 157.14 105.1 156.34 105.93C155.54 106.76 154.89 107.48 154.89 107.53C154.89 107.58 154.35 108.15 153.69 108.81C153.03 109.46 151.23 111.34 149.7 112.99C148.16 114.64 146.35 116.57 145.67 117.29C144.99 118.01 144.22 118.8 143.96 119.05L143.5 119.51C144.49 119.7 146.08 119.88 147.68 120.04C149.27 120.19 152.56 120.52 154.98 120.76C157.39 121 161.63 121.43 164.38 121.71C167.14 122 170.18 122.3 171.15 122.4C172.12 122.49 174.17 122.69 175.72 122.85C177.27 123.01 180.83 123.37 183.63 123.66C186.44 123.95 190.55 124.39 192.77 124.63C195 124.86 197.17 125.06 197.61 125.06C198.04 125.06 200.3 125.3 202.62 125.59C204.94 125.87 207 126.11 207.19 126.11L207.54 126.1C207 125.69 205.61 124.97 204.11 124.24C202.62 123.5 199.73 122.08 197.7 121.09C195.67 120.09 193.83 119.23 193.61 119.17C193.39 119.11 193.21 118.97 193.21 118.85C193.21 118.73 193.42 118.07 193.67 117.39C193.92 116.72 194.17 116 194.21 115.81C194.26 115.62 194.5 114.82 194.74 114.05C194.99 113.27 195.41 111.97 195.68 111.14C195.94 110.32 196.38 108.93 196.65 108.06C196.92 107.19 197.35 105.84 197.61 105.07C197.86 104.29 198.29 102.94 198.56 102.07C198.83 101.2 199.17 100.13 199.32 99.69C199.47 99.26 199.67 98.58 199.77 98.2C199.86 97.81 200.17 96.9 200.45 96.17C200.72 95.44 200.95 94.71 200.95 94.54C200.95 94.37 201.15 93.76 201.39 93.18L201.83 92.12C200.94 92.29 200.17 92.58 199.54 92.86C198.91 93.15 197.98 93.57 197.48 93.81C196.97 94.04 196.46 94.24 196.33 94.24C196.21 94.24 195.64 94.48 195.06 94.77C194.48 95.06 193.93 95.29 193.83 95.29C193.73 95.28 193.28 95.48 192.82 95.73C192.36 95.97 191.88 96.17 191.76 96.17C191.64 96.17 191.07 96.4 190.49 96.69C189.91 96.98 189.34 97.22 189.21 97.22C189.09 97.22 188.64 97.43 188.2 97.67C187.77 97.91 187.31 98.11 187.19 98.11C187.07 98.1 186.48 98.34 185.87 98.63C185.27 98.93 184.7 99.16 184.6 99.16C184.5 99.16 184.01 99.35 183.5 99.59C182.99 99.82 182.08 100.23 181.48 100.51C180.88 100.79 180.36 100.97 180.33 100.93C180.3 100.88 180 100.45 179.67 99.98C179.33 99.51 178.81 98.84 178.5 98.49C178.19 98.13 177.93 97.76 177.92 97.67C177.92 97.57 177.72 97.31 177.48 97.1C177.24 96.88 177.04 96.58 177.04 96.43C177.04 96.29 176.98 96.17 176.91 96.18C176.84 96.18 176.46 95.74 176.07 95.2C175.69 94.66 175.31 94.22 175.24 94.23C175.16 94.23 175.1 94.13 175.1 94.01C175.09 93.89 174.88 93.54 174.61 93.24C174.35 92.93 173.74 92.15 173.26 91.5C172.78 90.85 172.25 90.13 172.1 89.91L171.81 89.5" />
		<path class="shp2" d="M25.23 121.09C25.13 121.12 24.85 121.19 24.61 121.24C24.37 121.29 23.86 121.59 23.47 121.9C23.08 122.2 22.67 122.62 22.55 122.83C22.43 123.04 22.2 123.48 22.03 123.82C21.85 124.19 21.7 125.01 21.66 125.85C21.62 126.62 21.68 128.72 21.78 130.52C21.89 132.31 22.14 135.2 22.34 136.95C22.53 138.69 22.89 141.19 23.13 142.49C23.37 143.8 23.56 145.07 23.56 145.31C23.56 145.55 23.81 146.74 24.1 147.95C24.4 149.17 24.83 150.85 25.07 151.7C25.3 152.55 25.49 153.34 25.49 153.46C25.49 153.58 25.74 154.47 26.04 155.44C26.35 156.41 26.78 157.72 26.99 158.35C27.2 158.98 27.52 159.89 27.68 160.37C27.85 160.86 28.14 161.69 28.33 162.22C28.52 162.75 28.83 163.53 29.02 163.94C29.21 164.35 29.36 164.77 29.36 164.86C29.36 164.96 29.61 165.57 29.91 166.23C30.21 166.88 30.63 167.8 30.83 168.28C31.04 168.75 31.93 170.57 32.81 172.33C33.7 174.08 34.71 176.05 35.06 176.71C35.4 177.36 35.77 177.94 35.86 177.99C35.96 178.03 36.04 178.19 36.04 178.34C36.04 178.48 36.28 178.92 36.57 179.31C36.86 179.69 37.1 180.09 37.1 180.19C37.1 180.28 37.28 180.58 37.5 180.85C37.72 181.11 38.01 181.56 38.15 181.83C38.3 182.11 38.55 182.49 38.72 182.67C38.89 182.86 39.03 183.07 39.02 183.14C39.02 183.21 39.22 183.51 39.46 183.8C39.71 184.09 39.91 184.41 39.91 184.5C39.91 184.6 40.15 184.94 40.44 185.25C40.73 185.57 40.96 185.88 40.96 185.96C40.95 186.03 41.13 186.3 41.35 186.55C41.57 186.81 42.15 187.58 42.63 188.26C43.12 188.95 43.57 189.51 43.64 189.52C43.72 189.52 43.78 189.62 43.78 189.74C43.78 189.86 43.94 190.12 44.13 190.32C44.32 190.51 45.44 191.82 46.62 193.22C47.79 194.63 49.18 196.21 49.69 196.74C50.21 197.28 51.33 198.44 52.17 199.34C53.02 200.23 53.75 200.96 53.8 200.96C53.85 200.96 54.56 201.6 55.38 202.39C56.2 203.18 57.37 204.24 57.98 204.73C58.58 205.23 59.08 205.7 59.08 205.77C59.07 205.84 59.19 205.9 59.34 205.9C59.48 205.9 59.76 206.1 59.95 206.34C60.14 206.59 60.36 206.78 60.43 206.78C60.51 206.77 60.68 206.9 60.83 207.07C60.97 207.24 61.68 207.81 62.39 208.35C63.1 208.9 63.82 209.42 63.99 209.51C64.17 209.61 64.52 209.89 64.79 210.13C65.05 210.37 65.4 210.65 65.57 210.75C65.74 210.84 66.34 211.24 66.9 211.63C67.46 212.02 68.04 212.41 68.18 212.51C68.33 212.61 69.06 213.1 69.82 213.61C70.58 214.12 71.24 214.53 71.29 214.53C71.34 214.53 71.64 214.71 71.95 214.93C72.26 215.15 72.74 215.45 73 215.59C73.26 215.74 74.25 216.28 75.2 216.81C76.14 217.33 77.43 218.04 78.06 218.38C78.69 218.71 79.32 219.05 79.47 219.13C79.61 219.21 80.66 219.71 81.8 220.25C82.93 220.79 83.92 221.23 83.99 221.23C84.07 221.24 84.52 221.43 85 221.67C85.49 221.91 85.98 222.11 86.1 222.11C86.22 222.11 86.62 222.27 86.98 222.46C87.34 222.65 88.19 223.02 88.87 223.27C89.55 223.52 90.46 223.83 90.89 223.96C91.33 224.08 92.14 224.4 92.7 224.65C93.25 224.9 93.84 225.1 94.01 225.1C94.18 225.1 94.86 225.29 95.51 225.54C96.16 225.78 96.83 225.98 97 225.99C97.17 225.99 98.06 226.21 98.98 226.49C99.9 226.77 101.56 227.2 102.67 227.45C103.78 227.7 105.13 227.98 105.66 228.08C106.19 228.18 107.5 228.41 108.56 228.61C109.63 228.8 111.76 229.12 113.31 229.33C114.86 229.54 117.82 229.79 119.9 229.89C122.01 229.99 126.13 230.02 129.22 229.95C133.21 229.87 135.5 229.74 137.39 229.49C138.84 229.3 140.72 229.06 141.57 228.97C142.42 228.88 143.84 228.63 144.73 228.43C145.63 228.23 146.8 228 147.33 227.93C147.86 227.86 149.01 227.62 149.88 227.4C150.75 227.18 152.01 226.85 152.69 226.65C153.37 226.46 154.24 226.23 154.62 226.13C155.01 226.04 156 225.76 156.82 225.51C157.64 225.26 158.91 224.84 159.63 224.58C160.36 224.31 161.31 223.97 161.74 223.82C162.18 223.67 162.81 223.45 163.15 223.33C163.49 223.22 164.26 222.89 164.86 222.62C165.47 222.34 166.04 222.11 166.14 222.11C166.24 222.11 166.73 221.92 167.24 221.69C167.75 221.46 168.71 221.02 169.39 220.73C170.07 220.43 172.05 219.46 173.79 218.58C175.53 217.69 177.03 216.9 177.13 216.82C177.22 216.73 177.58 216.51 177.92 216.33C178.26 216.14 178.81 215.84 179.15 215.66C179.49 215.47 180.02 215.15 180.34 214.93C180.65 214.71 180.97 214.54 181.04 214.54C181.11 214.54 181.33 214.4 181.52 214.22C181.72 214.05 182.26 213.67 182.73 213.38C183.21 213.1 183.77 212.74 183.99 212.6C184.2 212.45 184.95 211.94 185.66 211.45C186.36 210.97 187.18 210.36 187.48 210.09C187.78 209.83 188.13 209.61 188.25 209.61C188.37 209.61 188.49 209.54 188.51 209.46C188.54 209.38 189.03 208.97 189.61 208.55C190.19 208.13 190.98 207.51 191.37 207.19C191.75 206.86 192.23 206.44 192.42 206.25C192.62 206.06 192.87 205.91 192.99 205.91C193.11 205.9 193.21 205.84 193.21 205.77C193.2 205.7 193.82 205.12 194.57 204.5C195.32 203.87 196.93 202.38 198.14 201.19C199.35 199.99 200.39 199.02 200.47 199.03C200.54 199.03 200.68 198.88 200.77 198.68C200.87 198.49 201.37 197.91 201.89 197.4C202.4 196.9 203.52 195.69 204.37 194.72C205.22 193.75 206.09 192.76 206.3 192.52C206.51 192.27 206.83 191.76 207.01 191.37C207.19 190.98 207.38 190.23 207.42 189.7C207.48 188.96 207.4 188.5 207.1 187.76C206.87 187.23 206.48 186.55 206.21 186.26C205.94 185.97 205.34 185.54 204.87 185.3C204.23 184.96 203.76 184.86 202.88 184.86C202.02 184.86 201.53 184.97 200.88 185.3C200.33 185.58 199.63 186.19 198.96 186.97C198.38 187.65 197.74 188.39 197.54 188.62C197.33 188.85 196.95 189.25 196.68 189.5C196.42 189.76 196.2 190 196.21 190.05C196.21 190.1 194.98 191.37 193.47 192.87C191.96 194.37 190.38 195.94 189.95 196.35C189.53 196.76 189.1 197.1 189 197.1C188.9 197.1 188.66 197.33 188.47 197.63C188.27 197.92 188.04 198.15 187.95 198.15C187.86 198.15 187.56 198.36 187.29 198.61C187.02 198.85 186.68 199.15 186.53 199.27C186.39 199.39 185.81 199.84 185.25 200.27C184.69 200.71 183.98 201.28 183.67 201.55C183.36 201.81 183.01 202.03 182.89 202.03C182.76 202.03 182.67 202.09 182.67 202.16C182.68 202.23 182.23 202.61 181.68 203C181.13 203.38 180.5 203.82 180.29 203.97C180.08 204.11 179.44 204.55 178.88 204.93C178.32 205.32 177.65 205.78 177.4 205.94C177.15 206.11 176.64 206.42 176.25 206.62C175.86 206.83 175.43 207.1 175.28 207.23C175.14 207.35 174.66 207.65 174.23 207.89C173.79 208.13 173 208.57 172.47 208.86C171.94 209.16 170.04 210.13 168.25 211.02C166.46 211.92 164.6 212.83 164.12 213.06C163.63 213.29 163.16 213.48 163.06 213.47C162.97 213.47 162.39 213.71 161.79 214C161.18 214.3 160.59 214.53 160.47 214.53C160.35 214.53 159.97 214.65 159.63 214.81C159.3 214.96 158.88 215.16 158.71 215.25C158.54 215.34 158.28 215.41 158.14 215.41C157.99 215.41 157.26 215.64 156.51 215.92C155.76 216.2 154.48 216.63 153.66 216.87C152.83 217.12 151.25 217.56 150.14 217.86C149.03 218.15 147.21 218.59 146.1 218.83C144.99 219.07 142.93 219.47 141.53 219.71C140.12 219.96 138.54 220.2 138.01 220.25C137.48 220.31 135.62 220.48 133.88 220.64C132.08 220.8 128.86 220.93 126.41 220.94C123.64 220.95 120.74 220.84 118.32 220.64C116.24 220.47 113.35 220.12 111.9 219.87C110.45 219.63 108.83 219.36 108.3 219.29C107.77 219.22 106.58 218.98 105.66 218.77C104.74 218.56 103.12 218.15 102.06 217.86C100.99 217.58 99.53 217.15 98.8 216.91C98.08 216.67 97.37 216.47 97.22 216.47C97.08 216.47 96.37 216.25 95.64 215.97C94.91 215.69 94.04 215.37 93.71 215.25C93.37 215.12 92.62 214.85 92.04 214.63C91.46 214.42 90.63 214.07 90.19 213.86C89.75 213.65 89.32 213.47 89.22 213.48C89.13 213.48 88.65 213.29 88.17 213.06C87.68 212.83 86.66 212.34 85.88 211.98C85.11 211.61 84 211.07 83.42 210.77C82.84 210.47 81.92 209.99 81.37 209.69C80.82 209.4 79.95 208.93 79.44 208.65C78.92 208.37 78.26 208.02 77.97 207.87C77.68 207.73 77.4 207.55 77.36 207.49C77.31 207.42 76.87 207.14 76.39 206.86C75.91 206.58 75.41 206.25 75.29 206.13C75.17 206.01 74.99 205.9 74.89 205.9C74.8 205.9 74.4 205.67 74.02 205.38C73.63 205.08 73.25 204.85 73.18 204.85C73.11 204.85 72.85 204.65 72.61 204.41C72.37 204.16 72.11 203.96 72.04 203.96C71.97 203.96 71.55 203.71 71.12 203.39C70.69 203.08 70.05 202.62 69.7 202.38C69.35 202.14 68.93 201.82 68.77 201.67C68.61 201.52 67.86 200.92 67.11 200.35C66.35 199.77 65.74 199.24 65.75 199.17C65.75 199.09 65.63 199.03 65.49 199.03C65.34 199.03 65.11 198.84 64.96 198.59C64.82 198.35 64.6 198.15 64.48 198.16C64.36 198.16 64.06 197.94 63.81 197.67C63.56 197.4 62.9 196.79 62.34 196.3C61.78 195.82 60.29 194.39 59.03 193.13C57.77 191.87 56.22 190.26 55.58 189.54C54.94 188.82 54.18 187.97 53.89 187.65C53.6 187.33 53.16 186.82 52.92 186.51C52.68 186.2 52.18 185.58 51.81 185.14C51.45 184.69 50.99 184.15 50.8 183.93C50.61 183.71 50.46 183.47 50.46 183.4C50.46 183.33 50.26 183.07 50.02 182.83C49.77 182.59 49.57 182.29 49.57 182.17C49.58 182.05 49.47 181.89 49.35 181.82C49.22 181.74 48.85 181.29 48.52 180.8C48.2 180.32 47.88 179.88 47.81 179.84C47.75 179.79 47.64 179.57 47.58 179.35C47.52 179.13 47.39 178.95 47.29 178.95C47.2 178.95 46.86 178.51 46.55 177.97C46.23 177.42 45.86 176.8 45.71 176.59C45.57 176.37 45.17 175.74 44.83 175.19C44.49 174.64 43.99 173.77 43.71 173.27C43.43 172.76 43.09 172.25 42.96 172.13C42.83 172.01 42.72 171.79 42.72 171.64C42.72 171.5 42.53 171.12 42.29 170.81C42.05 170.49 41.85 170.16 41.85 170.06C41.85 169.96 41.51 169.21 41.09 168.39C40.66 167.56 40.24 166.73 40.14 166.54C40.04 166.34 39.76 165.75 39.52 165.22C39.28 164.68 38.84 163.69 38.55 163.01C38.25 162.34 37.85 161.38 37.65 160.9C37.44 160.42 37.17 159.7 37.03 159.32C36.89 158.93 36.6 158.1 36.38 157.47C36.16 156.84 35.88 156.08 35.76 155.79C35.64 155.5 35.38 154.67 35.18 153.94C34.98 153.22 34.66 152.19 34.46 151.65C34.27 151.12 34.11 150.53 34.11 150.33C34.11 150.14 33.99 149.62 33.84 149.19C33.68 148.75 33.37 147.48 33.14 146.37C32.91 145.26 32.61 143.75 32.46 143.02C32.31 142.3 31.99 140.31 31.75 138.62C31.5 136.92 31.22 134.11 31.13 132.37C31.03 130.62 30.9 128.21 30.85 126.99C30.8 125.78 30.66 124.4 30.54 123.93C30.36 123.22 30.14 122.9 29.27 122.13C28.56 121.5 28.02 121.16 27.6 121.1C27.26 121.05 26.63 121.01 26.2 121.02C25.76 121.03 25.33 121.06 25.23 121.09Z" />
		<path class="shp0" d="M49.54 126.59C49.56 126.72 49.64 126.82 49.71 126.81C49.78 126.81 50.23 127.11 50.7 127.47C51.17 127.84 52.02 128.52 52.59 128.98C53.16 129.44 53.7 129.81 53.8 129.81C53.89 129.81 54.07 129.95 54.19 130.12C54.31 130.29 55.03 130.91 55.78 131.49C56.54 132.07 57.15 132.6 57.14 132.67C57.14 132.75 57.26 132.81 57.4 132.81C57.55 132.81 57.84 133 58.06 133.24C58.28 133.48 58.56 133.68 58.68 133.68C58.8 133.69 58.96 133.8 59.03 133.94C59.1 134.08 59.71 134.6 60.39 135.1C61.07 135.6 61.74 136.12 61.88 136.25C62.03 136.39 62.43 136.73 62.76 137.02C63.1 137.31 63.48 137.55 63.6 137.56C63.72 137.56 63.82 137.62 63.82 137.69C63.82 137.77 64.23 138.14 64.74 138.52C65.25 138.91 65.77 139.3 65.9 139.4C66.03 139.5 66.33 139.77 66.56 139.98C66.79 140.2 67.04 140.38 67.11 140.38C67.19 140.37 67.48 140.61 67.77 140.91C68.06 141.2 68.4 141.44 68.52 141.44C68.64 141.44 68.74 141.5 68.74 141.57C68.74 141.64 69.17 142.02 69.71 142.41C70.24 142.79 70.67 143.17 70.67 143.24C70.67 143.32 70.79 143.38 70.94 143.38C71.08 143.38 71.3 143.51 71.42 143.69C71.54 143.86 71.81 144.11 72.02 144.26C72.22 144.4 73.05 145.03 73.86 145.65C74.67 146.28 75.39 146.89 75.47 147.02C75.54 147.15 75.7 147.25 75.82 147.26C75.94 147.26 76.21 147.44 76.41 147.65C76.62 147.87 77.17 148.32 77.62 148.66C78.08 149 78.92 149.65 79.49 150.11C80.06 150.57 80.6 150.95 80.7 150.95C80.79 150.95 80.93 151.06 81 151.19C81.08 151.33 81.79 151.92 82.59 152.52C83.38 153.11 84.04 153.67 84.04 153.77C84.04 153.86 84.14 153.94 84.26 153.94C84.38 153.94 84.67 154.14 84.92 154.38C85.16 154.63 85.45 154.83 85.57 154.83C85.7 154.83 85.85 154.94 85.93 155.07C86 155.21 86.61 155.73 87.29 156.23C87.97 156.73 88.64 157.25 88.78 157.39C88.93 157.52 89.32 157.87 89.66 158.16C90 158.45 90.38 158.69 90.5 158.69C90.62 158.7 90.72 158.76 90.71 158.83C90.71 158.9 91.05 159.21 91.46 159.52C91.87 159.82 92.41 160.23 92.65 160.43C92.89 160.63 93.29 160.96 93.53 161.16C93.77 161.36 94.23 161.74 94.55 162C94.87 162.27 95.15 162.45 95.18 162.4C95.2 162.35 95.46 161.93 95.74 161.47C96.02 161.01 96.31 160.64 96.39 160.64C96.46 160.64 96.52 160.54 96.51 160.42C96.51 160.3 96.71 159.98 96.95 159.71C97.2 159.45 97.4 159.15 97.4 159.05C97.4 158.95 97.54 158.71 97.71 158.5C97.87 158.3 98.11 158.02 98.23 157.89C98.35 157.75 98.45 157.56 98.45 157.47C98.45 157.37 98.65 157.07 98.9 156.81C99.14 156.54 99.34 156.22 99.34 156.1C99.33 155.98 99.39 155.88 99.46 155.88C99.54 155.88 99.87 155.44 100.21 154.91C100.55 154.37 100.87 153.91 100.93 153.89C100.99 153.87 101.15 153.65 101.28 153.39C101.42 153.14 101.85 152.47 102.23 151.91C102.62 151.35 103.05 150.71 103.2 150.5C103.34 150.29 103.78 149.66 104.17 149.09C104.55 148.53 104.99 147.89 105.13 147.68C105.28 147.47 105.71 146.84 106.1 146.27C106.49 145.71 106.92 145.08 107.07 144.87C107.21 144.65 107.64 144.02 108.01 143.44C108.39 142.87 108.76 142.39 108.85 142.36C108.93 142.34 109 142.24 109 142.14C109 142.05 109.2 141.73 109.44 141.44C109.68 141.15 109.88 140.79 109.88 140.64C109.88 140.5 109.94 140.38 110.01 140.38C110.08 140.38 110.3 140.13 110.48 139.81C110.67 139.49 111.04 138.98 111.32 138.66C111.59 138.35 111.81 137.97 111.81 137.83C111.81 137.68 111.87 137.56 111.95 137.57C112.02 137.57 112.25 137.27 112.47 136.91C112.68 136.54 113.06 136 113.31 135.71C113.56 135.42 113.76 135.09 113.75 134.96C113.75 134.84 113.82 134.72 113.9 134.7C113.98 134.68 114.26 134.32 114.51 133.91C114.77 133.5 114.93 133.1 114.88 133.03C114.82 132.95 113.97 132.85 112.99 132.79C112 132.73 109.26 132.47 106.89 132.21C104.52 131.95 100.76 131.54 98.54 131.3C96.32 131.06 94.26 130.86 93.97 130.87C93.68 130.88 91.19 130.64 88.43 130.34C85.68 130.04 81.52 129.61 79.2 129.37C76.88 129.14 74.19 128.87 73.22 128.78C72.26 128.69 69.84 128.44 67.86 128.23C65.88 128.03 62.36 127.66 60.04 127.43C57.72 127.2 54.4 126.86 52.66 126.68C50.13 126.43 49.51 126.41 49.54 126.59Z" />
		<path class="shp1" d="M204.38 126.74C203.51 126.87 202.36 126.97 201.83 126.98C201.3 126.98 199.12 127.19 196.99 127.42C194.87 127.66 192.3 127.93 191.28 128.02C190.26 128.11 187.81 128.35 185.83 128.57C183.85 128.78 180.33 129.14 178.01 129.37C175.69 129.61 173 129.87 172.03 129.97C171.06 130.06 168.65 130.3 166.67 130.51C164.68 130.72 161.28 131.08 159.11 131.32C156.93 131.56 154.81 131.76 154.4 131.75C153.99 131.75 152.02 131.95 150.01 132.2C148 132.45 145.37 132.72 144.16 132.81C142.95 132.9 141.93 133.02 141.88 133.07C141.83 133.12 141.93 133.3 142.09 133.47C142.26 133.64 142.4 133.85 142.4 133.95C142.4 134.05 142.54 134.29 142.72 134.48C142.9 134.67 143.44 135.43 143.91 136.15C144.38 136.88 144.91 137.63 145.08 137.83C145.26 138.02 145.4 138.28 145.4 138.4C145.4 138.52 145.45 138.62 145.53 138.62C145.6 138.61 145.83 138.91 146.04 139.28C146.25 139.64 146.62 140.18 146.87 140.47C147.12 140.76 147.33 141.1 147.33 141.22C147.33 141.34 147.39 141.46 147.47 141.48C147.55 141.51 147.93 141.99 148.31 142.57C148.69 143.14 149.08 143.74 149.17 143.89C149.27 144.04 149.39 144.21 149.45 144.26C149.5 144.3 149.88 144.86 150.29 145.49C150.7 146.12 151.03 146.67 151.02 146.72C151.01 146.77 151.13 146.93 151.29 147.07C151.45 147.22 151.9 147.81 152.28 148.39C152.66 148.98 152.96 149.49 152.95 149.54C152.94 149.59 153.07 149.75 153.23 149.89C153.39 150.04 153.83 150.63 154.21 151.21C154.59 151.79 154.89 152.31 154.89 152.36C154.88 152.41 155 152.56 155.16 152.71C155.32 152.86 155.76 153.45 156.14 154.03C156.52 154.61 156.83 155.13 156.82 155.18C156.81 155.22 156.99 155.46 157.22 155.7C157.45 155.95 157.96 156.68 158.37 157.33C158.78 157.99 159.27 158.68 159.46 158.88C159.65 159.07 159.81 159.35 159.81 159.49C159.81 159.64 159.87 159.76 159.94 159.75C160.01 159.75 160.33 160.19 160.65 160.72C160.96 161.26 161.3 161.69 161.39 161.69C161.49 161.69 161.57 161.81 161.57 161.96C161.57 162.1 161.67 162.22 161.79 162.22C161.91 162.22 162.42 161.87 162.93 161.43C163.44 160.99 163.93 160.64 164.03 160.64C164.13 160.64 164.3 160.5 164.43 160.33C164.55 160.16 164.81 159.9 165.02 159.75C165.23 159.61 166.06 158.98 166.87 158.36C167.67 157.73 168.4 157.12 168.47 156.99C168.54 156.87 168.7 156.76 168.82 156.76C168.94 156.76 169.17 156.63 169.32 156.45C169.48 156.28 170.03 155.83 170.54 155.44C171.05 155.05 171.66 154.56 171.89 154.34C172.12 154.12 172.36 153.94 172.43 153.95C172.5 153.95 172.79 153.71 173.08 153.41C173.37 153.12 173.71 152.88 173.83 152.88C173.95 152.88 174.05 152.81 174.05 152.71C174.05 152.61 174.28 152.4 174.55 152.23C174.83 152.06 175.36 151.68 175.72 151.39C176.08 151.1 176.57 150.68 176.81 150.46C177.04 150.25 177.29 150.07 177.36 150.07C177.42 150.08 177.68 149.88 177.92 149.63C178.16 149.38 178.46 149.18 178.58 149.18C178.7 149.19 178.86 149.09 178.93 148.97C179 148.85 179.54 148.38 180.12 147.92C180.7 147.47 181.37 146.94 181.61 146.74C181.85 146.55 182.33 146.15 182.67 145.86C183 145.57 183.38 145.32 183.5 145.32C183.62 145.32 183.72 145.25 183.72 145.18C183.72 145.11 184.13 144.74 184.64 144.35C185.15 143.97 185.65 143.6 185.74 143.52C185.84 143.45 186.13 143.2 186.39 142.98C186.65 142.76 187.27 142.27 187.77 141.88C188.28 141.49 189.16 140.8 189.72 140.34C190.29 139.88 190.81 139.5 190.88 139.49C190.96 139.49 191.18 139.31 191.39 139.1C191.59 138.88 192.34 138.27 193.05 137.74C193.76 137.21 194.62 136.52 194.96 136.2C195.31 135.89 195.67 135.64 195.76 135.63C195.86 135.63 196.07 135.49 196.22 135.32C196.38 135.15 196.92 134.69 197.44 134.3C197.95 133.92 198.56 133.42 198.79 133.2C199.02 132.99 199.26 132.81 199.33 132.81C199.4 132.81 199.69 132.57 199.98 132.28C200.27 131.98 200.61 131.74 200.73 131.75C200.85 131.75 200.95 131.69 200.94 131.62C200.94 131.55 201.28 131.24 201.69 130.93C202.11 130.63 202.62 130.23 202.84 130.05C203.06 129.87 203.44 129.57 203.7 129.37C203.95 129.18 204.44 128.78 204.79 128.48C205.15 128.19 205.85 127.65 206.36 127.29C206.86 126.93 207.28 126.6 207.28 126.55C207.28 126.51 206.98 126.48 206.62 126.49C206.26 126.5 205.25 126.62 204.38 126.74Z" />
		<path class="shp2" d="M120.69 141.66C120.2 142.07 119.64 142.56 119.43 142.76C119.23 142.95 118.87 143.27 118.64 143.47C118.42 143.66 117.68 144.3 117 144.88C116.32 145.46 115.73 145.97 115.68 146.02C115.63 146.08 115 146.62 114.28 147.24C113.55 147.85 112.83 148.48 112.68 148.64C112.52 148.8 112.1 149.16 111.73 149.45C111.37 149.74 110.9 150.15 110.7 150.35C110.49 150.55 109.69 151.26 108.91 151.91C108.14 152.57 107.35 153.26 107.16 153.43C106.96 153.61 106.54 153.97 106.22 154.24C105.9 154.51 105.34 155 104.99 155.32C104.63 155.64 104.18 156.04 103.99 156.21C103.8 156.38 103.05 157.02 102.32 157.64C101.6 158.26 100.8 158.94 100.56 159.16C100.32 159.38 99.86 159.79 99.54 160.06C99.21 160.33 98.66 160.81 98.31 161.13C97.95 161.45 97.5 161.86 97.31 162.03C97.12 162.2 96.21 162.98 95.29 163.77C94.37 164.55 93.46 165.48 93.27 165.83C93.07 166.18 92.86 166.46 92.78 166.45C92.71 166.45 92.65 166.55 92.64 166.67C92.64 166.79 92.27 167.43 91.81 168.09C91.35 168.75 90.87 169.51 90.73 169.77C90.59 170.02 90.36 170.35 90.22 170.5C90.08 170.65 89.83 171.04 89.66 171.38C89.49 171.72 89.22 172.12 89.06 172.26C88.9 172.41 88.77 172.57 88.78 172.61C88.79 172.66 88.46 173.22 88.05 173.85C87.64 174.48 87.2 175.09 87.07 175.21C86.95 175.33 86.85 175.55 86.85 175.7C86.85 175.84 86.79 175.98 86.71 176C86.63 176.03 86.4 176.35 86.18 176.71C85.97 177.07 85.81 177.41 85.84 177.45C85.86 177.5 87.39 177.41 89.22 177.27C91.06 177.12 95.13 176.77 98.28 176.48C101.42 176.19 104.43 175.96 104.96 175.96C105.49 175.96 107.86 175.76 110.23 175.52C112.6 175.28 115.05 175.08 115.68 175.07C116.31 175.07 118.68 174.87 120.96 174.64C123.23 174.4 125.11 174.19 125.14 174.16C125.16 174.13 124.99 172.33 124.75 170.15C124.51 167.97 124.23 165.23 124.13 164.07C124.02 162.91 123.82 161.01 123.68 159.84C123.54 158.68 123.38 157.14 123.33 156.41C123.27 155.68 123.04 153.23 122.8 150.95C122.56 148.67 122.25 145.48 122.09 143.86C121.94 142.24 121.76 140.91 121.69 140.91C121.63 140.91 121.17 141.25 120.69 141.66Z" />
		<path class="shp1" d="M134.95 141.75C134.89 142.21 134.85 142.9 134.85 143.29C134.85 143.67 134.62 146.17 134.33 148.84C134.04 151.5 133.72 154.51 133.63 155.53C133.53 156.55 133.33 158.61 133.17 160.11C133.02 161.61 132.67 165.1 132.38 167.86C132.1 170.62 131.67 174.86 131.43 177.28C131.19 179.7 130.87 182.91 130.71 184.41C130.55 185.92 130.35 187.98 130.26 188.99C130.17 190.01 129.86 193.1 129.57 195.86C129.29 198.62 128.97 201.8 128.87 202.91C128.76 204.02 128.63 205.29 128.58 205.73C128.5 206.48 128.51 206.5 128.77 206.17C128.92 205.97 129.05 205.72 129.05 205.6C129.04 205.47 129.28 204.86 129.57 204.23C129.86 203.6 130.1 203.01 130.1 202.91C130.1 202.81 130.3 202.34 130.54 201.85C130.78 201.37 130.98 200.89 130.98 200.8C130.98 200.7 131.16 200.2 131.39 199.69C131.61 199.19 131.88 198.53 131.99 198.24C132.09 197.95 132.35 197.28 132.57 196.74C132.79 196.21 133.14 195.38 133.35 194.89C133.57 194.41 133.82 193.78 133.92 193.49C134.02 193.2 134.28 192.52 134.5 191.99C134.71 191.46 135.07 190.6 135.3 190.1C135.54 189.59 135.73 189.07 135.73 188.95C135.73 188.83 135.97 188.25 136.26 187.67C136.55 187.09 136.79 186.52 136.78 186.4C136.78 186.28 136.98 185.78 137.22 185.3C137.46 184.81 137.66 184.32 137.66 184.19C137.66 184.07 137.89 183.5 138.18 182.92C138.47 182.34 138.7 181.76 138.71 181.64C138.71 181.52 138.91 181.02 139.15 180.54C139.39 180.06 139.59 179.56 139.59 179.44C139.59 179.32 139.79 178.8 140.03 178.29C140.27 177.79 140.47 177.29 140.47 177.19C140.47 177.1 140.67 176.58 140.91 176.05C141.29 175.21 141.42 175.08 141.83 175.08C142.1 175.08 144.3 175.28 146.71 175.52C149.13 175.76 151.5 175.96 151.99 175.95C152.47 175.95 155.48 176.19 158.67 176.48C161.86 176.77 165.97 177.13 167.81 177.27C169.65 177.42 171.17 177.5 171.19 177.45C171.22 177.41 171.14 177.27 171.01 177.15C170.89 177.03 170.45 176.41 170.04 175.78C169.63 175.15 169.29 174.58 169.3 174.51C169.3 174.43 169.2 174.28 169.07 174.15C168.94 174.03 168.61 173.58 168.34 173.14C168.06 172.71 167.73 172.25 167.6 172.13C167.47 172.01 167.37 171.85 167.38 171.78C167.38 171.7 167.05 171.13 166.63 170.5C166.22 169.87 165.78 169.26 165.66 169.13C165.54 169.01 165.44 168.8 165.44 168.65C165.44 168.51 165.37 168.37 165.3 168.34C165.22 168.32 164.79 167.74 164.34 167.07C163.88 166.39 163.51 165.75 163.51 165.66C163.51 165.56 163.01 165.04 162.41 164.51C161.82 163.98 161.08 163.33 160.79 163.07C160.49 162.81 160.03 162.41 159.76 162.19C159.49 161.96 159.09 161.62 158.88 161.41C158.67 161.21 157.58 160.27 156.47 159.32C155.36 158.38 154.29 157.45 154.1 157.28C153.9 157.1 153.48 156.73 153.16 156.46C152.84 156.19 152.28 155.71 151.93 155.38C151.57 155.06 151.13 154.66 150.93 154.49C150.74 154.32 149.95 153.64 149.17 152.98C148.4 152.32 147.58 151.61 147.36 151.41C147.13 151.2 146.72 150.82 146.43 150.55C146.15 150.29 145.84 150.07 145.75 150.07C145.65 150.07 145.45 149.87 145.31 149.63C145.16 149.39 144.92 149.19 144.78 149.19C144.63 149.19 144.48 149.09 144.43 148.97C144.39 148.85 143.28 147.84 141.97 146.72C140.65 145.61 139.55 144.6 139.5 144.48C139.45 144.35 139.3 144.26 139.15 144.26C139.01 144.26 138.77 144.06 138.63 143.82C138.48 143.57 138.24 143.38 138.1 143.38C137.95 143.38 137.77 143.24 137.7 143.09C137.63 142.93 137.06 142.37 136.43 141.86C135.8 141.34 135.23 140.92 135.17 140.92C135.11 140.91 135.01 141.29 134.95 141.75Z" />
		<path class="shp0" d="M125.18 221.01C125.8 221.04 126.75 221.04 127.29 221C127.82 220.97 127.3 220.94 126.14 220.94C124.98 220.94 124.55 220.97 125.18 221.01Z" />
	</g>
</svg>