<?xml version="1.0" encoding="UTF-8"?>
<svg id="Calque_1" xmlns="http://www.w3.org/2000/svg" version="1.1" viewBox="0 0 478.835 476.038">
  <!-- Generator: Adobe Illustrator 30.0.0, SVG Export Plug-In . SVG Version: 2.1.1 Build 123)  -->
  <defs>
    <style>
      .st0 {
        fill: #f3e400;
      }

      .st1, .st2 {
        fill: #fff;
      }

      .st2 {
        fill-rule: evenodd;
      }

      .st3 {
        fill: #00aae1;
      }
    </style>
  </defs>
  <rect class="st3" x="144.918" y="129.753" width="189" height="62.1"/>
  <path class="st1" d="M144.918,197.853h4.5v121.52c-2.9-6.02-4.5-12.25-4.5-18.69v-102.83Z"/>
  <path class="st1" d="M333.918,197.853v102.83c0,6.44-1.6,12.67-4.5,18.69v-121.52h4.5Z"/>
  <path class="st3" d="M185.418,197.853v159.22c-16.3-11.55-29.46-24.1-36-37.7v-121.52h36Z"/>
  <path class="st3" d="M257.418,197.853v181.21c-5.28,2.87-10.62,5.67-15.95,8.39l-2.05,1.05-2.05-1.05c-5.33-2.72-10.67-5.52-15.95-8.39v-181.21h36Z"/>
  <path class="st3" d="M329.418,197.853v121.52c-6.54,13.6-19.7,26.14-36,37.7v-159.22h36Z"/>
  <path class="st3" d="M329.418,134.256v166.426c0,32.496-45.938,60.241-90,82.767-44.062-22.527-90-50.272-90-82.767v-166.426h180ZM338.418,125.256h-198v175.426c0,17.666,10.402,34.71,31.799,52.106,18.841,15.317,43.621,28.715,63.104,38.675l4.097,2.094,4.097-2.094c19.483-9.961,44.262-23.358,63.104-38.675,21.398-17.396,31.799-34.439,31.799-52.106V125.256h0Z"/>
  <path class="st1" d="M143.418,128.253v172.43c0,16.71,10.04,32.99,30.69,49.78,18.63,15.14,43.23,28.44,62.58,38.33l2.73,1.4,2.73-1.4c19.35-9.89,43.95-23.19,62.58-38.33,20.65-16.79,30.69-33.07,30.69-49.78v-172.43h-192ZM149.418,134.253h180v57.6h-180v-57.6ZM185.418,351.583c-21.04-15.36-36-32.35-36-50.9v-102.83h36v153.73ZM257.418,373.953c-5.96,3.26-12,6.43-18,9.5-6-3.07-12.04-6.24-18-9.5v-176.1h36v176.1ZM329.418,300.683c0,18.55-14.96,35.54-36,50.9v-153.73h36v102.83Z"/>
  <g>
    <path id="path1134" class="st0" d="M258.604,59.188l-19.243-10.754-19.228,10.78,4.282-21.624-16.194-14.956,21.889-2.61L239.329,0l9.246,20.011,21.892,2.581-16.174,14.978,4.311,21.618Z"/>
    <path id="path11341" data-name="path1134" class="st0" d="M154.896,86.993l-19.243-10.754-19.228,10.78,4.282-21.624-16.194-14.956,21.889-2.61,9.22-20.023,9.246,20.011,21.892,2.581-16.174,14.978,4.311,21.618Z"/>
    <path id="path11342" data-name="path1134" class="st0" d="M78.016,163.25l-19.243-10.754-19.228,10.78,4.282-21.624-16.194-14.956,21.889-2.61,9.22-20.023,9.246,20.011,21.892,2.581-16.174,14.978,4.311,21.618Z"/>
    <path id="path11343" data-name="path1134" class="st0" d="M50.383,267.39l-19.243-10.754-19.228,10.78,4.282-21.624L0,230.835l21.889-2.61,9.22-20.023,9.246,20.011,21.892,2.581-16.174,14.978,4.311,21.618Z"/>
    <path id="path11344" data-name="path1134" class="st0" d="M77.721,371.865l-19.243-10.754-19.228,10.78,4.282-21.624-16.194-14.956,21.889-2.61,9.22-20.023,9.246,20.011,21.892,2.581-16.174,14.978,4.311,21.618Z"/>
    <path id="path11345" data-name="path1134" class="st0" d="M154.537,447.766l-19.243-10.754-19.228,10.78,4.282-21.624-16.194-14.956,21.889-2.61,9.22-20.023,9.246,20.011,21.892,2.581-16.174,14.978,4.311,21.618Z"/>
    <path id="path11346" data-name="path1134" class="st0" d="M258.202,476.012l-19.243-10.754-19.228,10.78,4.282-21.624-16.194-14.956,21.889-2.61,9.22-20.023,9.246,20.011,21.892,2.581-16.174,14.978,4.311,21.618Z"/>
    <path id="path11347" data-name="path1134" class="st0" d="M362.508,447.766l-19.243-10.754-19.228,10.78,4.282-21.624-16.194-14.956,21.889-2.61,9.22-20.023,9.246,20.011,21.892,2.581-16.174,14.978,4.311,21.618Z"/>
    <path id="path11348" data-name="path1134" class="st0" d="M438.803,371.543l-19.243-10.754-19.228,10.78,4.282-21.624-16.194-14.956,21.889-2.61,9.22-20.023,9.246,20.011,21.892,2.581-16.174,14.978,4.311,21.618Z"/>
    <path id="path11349" data-name="path1134" class="st0" d="M466.972,267.39l-19.243-10.754-19.228,10.78,4.282-21.624-16.194-14.956,21.889-2.61,9.22-20.023,9.246,20.011,21.892,2.581-16.174,14.978,4.311,21.618Z"/>
    <path id="path113410" data-name="path1134" class="st0" d="M438.803,163.837l-19.243-10.754-19.228,10.78,4.282-21.624-16.194-14.956,21.889-2.61,9.22-20.023,9.246,20.011,21.892,2.581-16.174,14.978,4.311,21.618Z"/>
    <path id="path113411" data-name="path1134" class="st0" d="M362.533,88.009l-19.243-10.754-19.228,10.78,4.282-21.624-16.194-14.956,21.889-2.61,9.22-20.023,9.246,20.011,21.892,2.581-16.174,14.978,4.311,21.618Z"/>
  </g>
  <g id="g1042">
    <path id="rect989" class="st2" d="M158.66,144.017v37.854h10.324v-12.626h25.841l4.054,12.626h10.54c-.423-4.681-1.932-9.32-3.922-12.957,2.596-.213,5.492-1.359,5.427-4.896v-13.98c-.033-6.025-4.518-6.078-10.335-6.022h-41.928ZM168.984,152.211h26.687c5.535-.271,5.202,9.015,0,8.84h-26.687v-8.84Z"/>
    <path id="rect999" class="st2" d="M222.183,144.029c-4.323,0-7.801,3.551-7.801,7.962v21.921c0,4.41,3.479,7.96,7.801,7.96h35.523c4.323,0,7.803-3.55,7.803-7.96v-6.945h-11.293v1.84c0,2.553-1.575,4.608-3.53,4.608h-21.483c-1.955,0-3.529-2.055-3.529-4.608v-11.713c0-2.553,1.573-4.608,3.529-4.608h21.483c1.955,0,3.53,2.055,3.53,4.608v1.84h11.293v-6.943c0-4.41-3.48-7.962-7.803-7.962h-35.523Z"/>
    <path id="rect1021" class="st2" d="M270.244,148.699v14.275c0,2.546-.223,4.043,4.217,3.762h35.302c2.377-.032,2.748,7.269-.165,7.47l-39.658.034v7.612h41.913c4.034.191,8.905.699,8.905-3.146v-15.488c-.074-4.087-4.013-4.041-6.516-4.093h-33.668c-1.805.189-2.01-7.504-.007-7.504h40.037v-7.612h-41.455c-5.64-.016-8.822.577-8.905,4.69h0Z"/>
  </g>
</svg>